<svg width="522" height="284" viewBox="0 0 522 284" fill="none" xmlns="http://www.w3.org/2000/svg">
<mask id="mask0_77_834" style="mask-type:alpha" maskUnits="userSpaceOnUse" x="0" y="0" width="522" height="284">
<rect width="522" height="284" rx="20" fill="url(#paint0_linear_77_834)"/>
</mask>
<g mask="url(#mask0_77_834)">
<rect x="36" y="24" width="205.264" height="211.185" rx="19.737" fill="#131416"/>
<g style="mix-blend-mode:darken">
<rect x="63.6313" y="45.7104" width="51.3161" height="51.3161" fill="#D9D9D9"/>
</g>
<path d="M100.734 60.0109H107.85C108.28 60.0114 108.695 60.1715 109.014 60.4604C109.333 60.7493 109.533 61.1463 109.576 61.5745L110.636 72.1718H107.141L106.272 63.4855H100.734V68.6973C100.734 69.158 100.551 69.5999 100.225 69.9257C99.8992 70.2515 99.4573 70.4345 98.9966 70.4345C98.5358 70.4345 98.0939 70.2515 97.7681 69.9257C97.4423 69.5999 97.2593 69.158 97.2593 68.6973V63.4855H83.3612V68.6973C83.3612 69.158 83.1782 69.5999 82.8524 69.9257C82.5266 70.2515 82.0847 70.4345 81.6239 70.4345C81.1632 70.4345 80.7213 70.2515 80.3955 69.9257C80.0697 69.5999 79.8867 69.158 79.8867 68.6973V63.4855H74.3448L71.5652 91.2817H90.3102V94.7562H69.6438C69.4011 94.756 69.1612 94.7049 68.9395 94.6063C68.7178 94.5077 68.5192 94.3637 68.3565 94.1837C68.1938 94.0037 68.0707 93.7915 67.9949 93.561C67.9192 93.3305 67.8926 93.0866 67.9169 92.8452L71.044 61.5745C71.087 61.1463 71.2875 60.7493 71.6065 60.4604C71.9255 60.1715 72.3404 60.0114 72.7708 60.0109H79.8867V58.7983C79.8867 52.7735 84.5286 47.8501 90.3102 47.8501C96.0919 47.8501 100.734 52.7735 100.734 58.7983V60.0144V60.0109ZM97.2593 60.0109V58.7983C97.2593 54.6497 94.1253 51.3246 90.3102 51.3246C86.4952 51.3246 83.3612 54.6497 83.3612 58.7983V60.0144H97.2593V60.0109ZM108.194 85.8614C108.352 85.689 108.544 85.5504 108.757 85.4539C108.971 85.3575 109.201 85.3052 109.436 85.3001C109.67 85.2951 109.902 85.3375 110.12 85.4247C110.337 85.512 110.535 85.6422 110.7 85.8077C110.866 85.9732 110.997 86.1705 111.084 86.3877C111.172 86.6049 111.214 86.8376 111.21 87.0718C111.205 87.3059 111.153 87.5367 111.057 87.7503C110.961 87.9638 110.822 88.1557 110.65 88.3144L103.701 95.2635C103.375 95.5892 102.933 95.7721 102.473 95.7721C102.012 95.7721 101.57 95.5892 101.245 95.2635L94.2955 88.3144C94.1296 88.1542 93.9972 87.9625 93.9062 87.7505C93.8151 87.5386 93.7672 87.3106 93.7652 87.0799C93.7632 86.8493 93.8072 86.6205 93.8945 86.407C93.9819 86.1935 94.1109 85.9995 94.274 85.8364C94.4371 85.6733 94.6311 85.5443 94.8446 85.4569C95.0581 85.3696 95.2868 85.3256 95.5175 85.3276C95.7482 85.3296 95.9761 85.3776 96.1881 85.4686C96.4001 85.5597 96.5918 85.692 96.752 85.8579L100.734 89.8432V77.3836C100.734 76.9228 100.917 76.4809 101.243 76.1551C101.568 75.8293 102.01 75.6463 102.471 75.6463C102.932 75.6463 103.374 75.8293 103.7 76.1551C104.025 76.4809 104.208 76.9228 104.208 77.3836V89.8432L108.194 85.8579V85.8614Z" fill="#E2FD70"/>
<path d="M73.0197 127.885C74.05 127.892 75.0523 128.075 76.0265 128.432C77.0078 128.782 77.8909 129.357 78.6759 130.156C79.4609 130.948 80.0847 132.01 80.5472 133.342C81.0098 134.673 81.2411 136.321 81.2411 138.283C81.2481 140.133 81.0519 141.787 80.6524 143.245C80.2599 144.696 79.6957 145.923 78.9597 146.925C78.2238 147.927 77.3372 148.691 76.2999 149.217C75.2626 149.742 74.0956 150.005 72.7989 150.005C71.4392 150.005 70.2337 149.739 69.1824 149.206C68.138 148.674 67.2935 147.945 66.6487 147.02C66.0038 146.094 65.6078 145.036 65.4607 143.845H69.298C69.4943 144.7 69.8938 145.379 70.4965 145.884C71.1063 146.382 71.8738 146.631 72.7989 146.631C74.2918 146.631 75.4413 145.982 76.2473 144.686C77.0533 143.389 77.4563 141.588 77.4563 139.282H77.3091C76.9657 139.899 76.5206 140.431 75.974 140.88C75.4273 141.321 74.807 141.661 74.1131 141.9C73.4262 142.138 72.6973 142.257 71.9263 142.257C70.6647 142.257 69.5293 141.956 68.52 141.353C67.5178 140.75 66.7223 139.923 66.1335 138.872C65.5518 137.82 65.2574 136.618 65.2504 135.266C65.2504 133.864 65.5728 132.606 66.2176 131.491C66.8694 130.37 67.7771 129.487 68.9406 128.842C70.104 128.19 71.4638 127.871 73.0197 127.885ZM73.0302 131.039C72.2733 131.039 71.5899 131.225 70.9801 131.597C70.3774 131.961 69.9008 132.459 69.5503 133.089C69.2069 133.713 69.0352 134.411 69.0352 135.182C69.0422 135.946 69.2139 136.639 69.5503 137.263C69.8938 137.887 70.3599 138.381 70.9486 138.746C71.5444 139.11 72.2242 139.292 72.9882 139.292C73.5559 139.292 74.0851 139.184 74.5757 138.966C75.0663 138.749 75.4938 138.448 75.8583 138.062C76.2298 137.67 76.5171 137.225 76.7204 136.727C76.9307 136.229 77.0323 135.704 77.0253 135.15C77.0253 134.414 76.8501 133.734 76.4996 133.11C76.1562 132.487 75.6831 131.986 75.0803 131.607C74.4846 131.229 73.8012 131.039 73.0302 131.039Z" fill="white"/>
<path d="M65.2083 185.579V171.225H70.3248C71.4416 171.225 72.3667 171.428 73.1003 171.835C73.8339 172.241 74.3829 172.798 74.7474 173.503C75.1119 174.204 75.2941 174.994 75.2941 175.872C75.2941 176.755 75.1095 177.55 74.7404 178.255C74.3759 178.956 73.8246 179.512 73.0863 179.923C72.3527 180.33 71.4299 180.533 70.3178 180.533H66.7994V178.697H70.1216C70.8271 178.697 71.3995 178.575 71.8387 178.332C72.2779 178.085 72.6004 177.748 72.8059 177.323C73.0115 176.898 73.1143 176.414 73.1143 175.872C73.1143 175.33 73.0115 174.849 72.8059 174.428C72.6004 174.008 72.2756 173.678 71.8317 173.44C71.3925 173.202 70.8131 173.083 70.0935 173.083H67.3741V185.579H65.2083ZM77.6648 185.579V174.814H79.6904V176.524H79.8025C79.9988 175.944 80.3446 175.489 80.8399 175.157C81.3398 174.821 81.9052 174.653 82.536 174.653C82.6668 174.653 82.821 174.657 82.9986 174.667C83.1808 174.676 83.3233 174.688 83.4261 174.702V176.706C83.342 176.683 83.1925 176.657 82.9776 176.629C82.7626 176.596 82.5477 176.58 82.3327 176.58C81.8375 176.58 81.3959 176.685 81.0081 176.895C80.6249 177.101 80.3212 177.388 80.0969 177.757C79.8726 178.122 79.7605 178.538 79.7605 179.005V185.579H77.6648ZM89.3889 185.797C88.3796 185.797 87.4989 185.565 86.7466 185.103C85.9943 184.64 85.4102 183.993 84.9944 183.161C84.5785 182.33 84.3706 181.358 84.3706 180.246C84.3706 179.129 84.5785 178.152 84.9944 177.316C85.4102 176.48 85.9943 175.83 86.7466 175.367C87.4989 174.905 88.3796 174.674 89.3889 174.674C90.3982 174.674 91.279 174.905 92.0313 175.367C92.7835 175.83 93.3676 176.48 93.7835 177.316C94.1993 178.152 94.4073 179.129 94.4073 180.246C94.4073 181.358 94.1993 182.33 93.7835 183.161C93.3676 183.993 92.7835 184.64 92.0313 185.103C91.279 185.565 90.3982 185.797 89.3889 185.797ZM89.3959 184.037C90.0501 184.037 90.5921 183.865 91.022 183.519C91.4519 183.173 91.7696 182.713 91.9752 182.138C92.1855 181.563 92.2906 180.93 92.2906 180.239C92.2906 179.552 92.1855 178.921 91.9752 178.346C91.7696 177.767 91.4519 177.302 91.022 176.951C90.5921 176.601 90.0501 176.426 89.3959 176.426C88.7371 176.426 88.1904 176.601 87.7559 176.951C87.326 177.302 87.0059 177.767 86.7956 178.346C86.59 178.921 86.4872 179.552 86.4872 180.239C86.4872 180.93 86.59 181.563 86.7956 182.138C87.0059 182.713 87.326 183.173 87.7559 183.519C88.1904 183.865 88.7371 184.037 89.3959 184.037ZM100.777 185.79C99.9075 185.79 99.1318 185.568 98.4496 185.124C97.7721 184.675 97.2394 184.037 96.8516 183.21C96.4684 182.379 96.2769 181.381 96.2769 180.218C96.2769 179.054 96.4708 178.059 96.8586 177.232C97.2511 176.405 97.7885 175.772 98.4706 175.332C99.1528 174.893 99.9262 174.674 100.791 174.674C101.459 174.674 101.996 174.786 102.403 175.01C102.814 175.23 103.132 175.487 103.356 175.781C103.585 176.075 103.762 176.335 103.888 176.559H104.015V171.225H106.11V185.579H104.064V183.904H103.888C103.762 184.133 103.58 184.395 103.342 184.689C103.108 184.984 102.786 185.241 102.375 185.46C101.963 185.68 101.431 185.79 100.777 185.79ZM101.239 184.002C101.842 184.002 102.351 183.843 102.767 183.526C103.188 183.203 103.505 182.757 103.72 182.187C103.94 181.617 104.05 180.953 104.05 180.197C104.05 179.449 103.942 178.795 103.727 178.234C103.512 177.673 103.197 177.236 102.781 176.923C102.365 176.61 101.851 176.454 101.239 176.454C100.608 176.454 100.083 176.617 99.6622 176.944C99.2416 177.272 98.9239 177.718 98.7089 178.283C98.4987 178.849 98.3936 179.486 98.3936 180.197C98.3936 180.916 98.501 181.563 98.716 182.138C98.9309 182.713 99.2486 183.168 99.6692 183.505C100.094 183.836 100.618 184.002 101.239 184.002ZM115.921 181.115V174.814H118.024V185.579H115.963V183.715H115.851C115.603 184.29 115.206 184.769 114.659 185.152C114.117 185.53 113.442 185.72 112.634 185.72C111.942 185.72 111.33 185.568 110.797 185.264C110.269 184.956 109.854 184.5 109.55 183.897C109.251 183.294 109.101 182.549 109.101 181.661V174.814H111.197V181.409C111.197 182.143 111.4 182.727 111.807 183.161C112.213 183.596 112.741 183.813 113.391 183.813C113.783 183.813 114.173 183.715 114.561 183.519C114.954 183.322 115.278 183.026 115.535 182.629C115.797 182.231 115.926 181.727 115.921 181.115ZM125.374 185.797C124.332 185.797 123.435 185.561 122.683 185.089C121.935 184.612 121.36 183.956 120.959 183.119C120.557 182.283 120.356 181.325 120.356 180.246C120.356 179.152 120.561 178.187 120.973 177.351C121.384 176.51 121.963 175.853 122.711 175.381C123.458 174.91 124.339 174.674 125.353 174.674C126.171 174.674 126.9 174.825 127.54 175.129C128.18 175.428 128.696 175.849 129.089 176.391C129.486 176.933 129.722 177.566 129.797 178.29H127.757C127.645 177.785 127.388 177.351 126.986 176.986C126.589 176.622 126.056 176.44 125.388 176.44C124.804 176.44 124.292 176.594 123.853 176.902C123.419 177.206 123.08 177.641 122.837 178.206C122.594 178.767 122.472 179.43 122.472 180.197C122.472 180.982 122.592 181.659 122.83 182.229C123.068 182.799 123.405 183.241 123.839 183.554C124.278 183.867 124.795 184.023 125.388 184.023C125.785 184.023 126.145 183.951 126.468 183.806C126.795 183.657 127.068 183.444 127.288 183.168C127.512 182.893 127.668 182.561 127.757 182.173H129.797C129.722 182.869 129.495 183.491 129.117 184.037C128.738 184.584 128.231 185.014 127.596 185.327C126.965 185.64 126.225 185.797 125.374 185.797ZM137.063 174.814V176.496H131.183V174.814H137.063ZM132.76 172.234H134.855V182.418C134.855 182.825 134.916 183.131 135.038 183.337C135.159 183.537 135.316 183.675 135.507 183.75C135.703 183.82 135.916 183.855 136.145 183.855C136.313 183.855 136.46 183.843 136.587 183.82C136.713 183.797 136.811 183.778 136.881 183.764L137.259 185.495C137.138 185.542 136.965 185.589 136.741 185.635C136.517 185.687 136.236 185.715 135.9 185.72C135.348 185.729 134.834 185.631 134.358 185.425C133.881 185.22 133.496 184.902 133.201 184.472C132.907 184.042 132.76 183.502 132.76 182.853V172.234ZM152.602 174.996C152.527 174.332 152.219 173.818 151.677 173.454C151.135 173.085 150.452 172.9 149.63 172.9C149.041 172.9 148.532 172.994 148.102 173.181C147.672 173.363 147.338 173.615 147.1 173.938C146.866 174.255 146.749 174.617 146.749 175.024C146.749 175.365 146.829 175.659 146.988 175.907C147.151 176.155 147.364 176.363 147.626 176.531C147.892 176.694 148.177 176.832 148.481 176.944C148.784 177.052 149.076 177.141 149.357 177.211L150.759 177.575C151.216 177.687 151.686 177.839 152.167 178.031C152.649 178.222 153.095 178.475 153.506 178.788C153.917 179.101 154.249 179.489 154.501 179.951C154.758 180.414 154.887 180.968 154.887 181.612C154.887 182.425 154.676 183.147 154.256 183.778C153.84 184.409 153.235 184.906 152.441 185.271C151.651 185.635 150.695 185.818 149.574 185.818C148.499 185.818 147.569 185.647 146.784 185.306C145.999 184.965 145.385 184.481 144.941 183.855C144.497 183.224 144.252 182.477 144.205 181.612H146.378C146.42 182.131 146.588 182.563 146.883 182.909C147.182 183.25 147.562 183.505 148.025 183.673C148.492 183.836 149.004 183.918 149.56 183.918C150.172 183.918 150.716 183.822 151.193 183.631C151.674 183.435 152.053 183.164 152.328 182.818C152.604 182.467 152.742 182.059 152.742 181.591C152.742 181.166 152.621 180.818 152.378 180.547C152.139 180.276 151.815 180.052 151.403 179.874C150.997 179.697 150.537 179.54 150.023 179.405L148.326 178.942C147.177 178.629 146.266 178.169 145.593 177.561C144.925 176.954 144.591 176.15 144.591 175.15C144.591 174.323 144.815 173.601 145.264 172.984C145.712 172.368 146.32 171.889 147.086 171.548C147.852 171.202 148.717 171.029 149.679 171.029C150.651 171.029 151.508 171.199 152.251 171.541C152.999 171.882 153.588 172.351 154.018 172.949C154.448 173.543 154.672 174.225 154.69 174.996H152.602ZM161.841 185.797C160.832 185.797 159.951 185.565 159.199 185.103C158.447 184.64 157.863 183.993 157.447 183.161C157.031 182.33 156.823 181.358 156.823 180.246C156.823 179.129 157.031 178.152 157.447 177.316C157.863 176.48 158.447 175.83 159.199 175.367C159.951 174.905 160.832 174.674 161.841 174.674C162.851 174.674 163.731 174.905 164.484 175.367C165.236 175.83 165.82 176.48 166.236 177.316C166.652 178.152 166.86 179.129 166.86 180.246C166.86 181.358 166.652 182.33 166.236 183.161C165.82 183.993 165.236 184.64 164.484 185.103C163.731 185.565 162.851 185.797 161.841 185.797ZM161.848 184.037C162.502 184.037 163.044 183.865 163.474 183.519C163.904 183.173 164.222 182.713 164.428 182.138C164.638 181.563 164.743 180.93 164.743 180.239C164.743 179.552 164.638 178.921 164.428 178.346C164.222 177.767 163.904 177.302 163.474 176.951C163.044 176.601 162.502 176.426 161.848 176.426C161.189 176.426 160.643 176.601 160.208 176.951C159.778 177.302 159.458 177.767 159.248 178.346C159.042 178.921 158.94 179.552 158.94 180.239C158.94 180.93 159.042 181.563 159.248 182.138C159.458 182.713 159.778 183.173 160.208 183.519C160.643 183.865 161.189 184.037 161.848 184.037ZM171.294 171.225V185.579H169.199V171.225H171.294ZM178.144 185.79C177.275 185.79 176.499 185.568 175.817 185.124C175.139 184.675 174.607 184.037 174.219 183.21C173.836 182.379 173.644 181.381 173.644 180.218C173.644 179.054 173.838 178.059 174.226 177.232C174.618 176.405 175.156 175.772 175.838 175.332C176.52 174.893 177.293 174.674 178.158 174.674C178.826 174.674 179.363 174.786 179.77 175.01C180.181 175.23 180.499 175.487 180.723 175.781C180.952 176.075 181.13 176.335 181.256 176.559H181.382V171.225H183.478V185.579H181.431V183.904H181.256C181.13 184.133 180.947 184.395 180.709 184.689C180.476 184.984 180.153 185.241 179.742 185.46C179.331 185.68 178.798 185.79 178.144 185.79ZM178.606 184.002C179.209 184.002 179.719 183.843 180.134 183.526C180.555 183.203 180.873 182.757 181.088 182.187C181.307 181.617 181.417 180.953 181.417 180.197C181.417 179.449 181.31 178.795 181.095 178.234C180.88 177.673 180.564 177.236 180.148 176.923C179.733 176.61 179.219 176.454 178.606 176.454C177.976 176.454 177.45 176.617 177.029 176.944C176.609 177.272 176.291 177.718 176.076 178.283C175.866 178.849 175.761 179.486 175.761 180.197C175.761 180.916 175.868 181.563 176.083 182.138C176.298 182.713 176.616 183.168 177.036 183.505C177.462 183.836 177.985 184.002 178.606 184.002Z" fill="#E8E8E8"/>
<path d="M68.1338 213.519V205.938H69.6421V213.519H68.1338ZM65.1004 210.48V208.977H72.6812V210.48H65.1004ZM74.7895 215.448V214.192L78.6752 210.166C79.0901 209.729 79.4321 209.346 79.7013 209.017C79.9741 208.684 80.1779 208.368 80.3124 208.069C80.447 207.77 80.5143 207.452 80.5143 207.116C80.5143 206.735 80.4246 206.406 80.2452 206.129C80.0657 205.849 79.8209 205.634 79.5106 205.484C79.2004 205.331 78.8509 205.254 78.4621 205.254C78.0509 205.254 77.6921 205.338 77.3855 205.507C77.079 205.675 76.8435 205.912 76.679 206.219C76.5146 206.525 76.4323 206.884 76.4323 207.295H74.7782C74.7782 206.596 74.939 205.985 75.2605 205.462C75.5819 204.938 76.023 204.533 76.5837 204.245C77.1444 203.953 77.7818 203.808 78.4957 203.808C79.2172 203.808 79.8527 203.952 80.4022 204.239C80.9554 204.524 81.3871 204.912 81.6974 205.406C82.0077 205.895 82.1628 206.449 82.1628 207.065C82.1628 207.492 82.0824 207.908 81.9217 208.316C81.7647 208.723 81.4899 209.177 81.0974 209.678C80.7049 210.175 80.1592 210.779 79.4602 211.489L77.1781 213.878V213.962H82.3478V215.448H74.7895ZM90.4669 213.295V212.689C90.4669 212.256 90.5566 211.859 90.736 211.501C90.9192 211.138 91.1846 210.848 91.5322 210.632C91.8836 210.411 92.3079 210.301 92.805 210.301C93.3134 210.301 93.7396 210.409 94.0835 210.626C94.4274 210.843 94.6872 211.132 94.8628 211.495C95.0423 211.858 95.132 212.256 95.132 212.689V213.295C95.132 213.728 95.0423 214.127 94.8628 214.489C94.6834 214.848 94.4199 215.138 94.0722 215.358C93.7283 215.575 93.3059 215.683 92.805 215.683C92.3004 215.683 91.8743 215.575 91.5266 215.358C91.179 215.138 90.9154 214.848 90.736 214.489C90.5566 214.127 90.4669 213.728 90.4669 213.295ZM91.7733 212.689V213.295C91.7733 213.616 91.85 213.908 92.0032 214.17C92.1565 214.431 92.4238 214.562 92.805 214.562C93.1826 214.562 93.4461 214.431 93.5956 214.17C93.7452 213.908 93.8199 213.616 93.8199 213.295V212.689C93.8199 212.368 93.747 212.076 93.6012 211.815C93.4592 211.553 93.1938 211.422 92.805 211.422C92.4312 211.422 92.1658 211.553 92.0088 211.815C91.8518 212.076 91.7733 212.368 91.7733 212.689ZM84.6916 206.723V206.118C84.6916 205.684 84.7813 205.286 84.9607 204.923C85.1439 204.561 85.4093 204.271 85.7569 204.054C86.1083 203.838 86.5326 203.729 87.0297 203.729C87.5381 203.729 87.9642 203.838 88.3082 204.054C88.6521 204.271 88.9118 204.561 89.0875 204.923C89.2632 205.286 89.3511 205.684 89.3511 206.118V206.723C89.3511 207.157 89.2614 207.555 89.0819 207.918C88.9062 208.277 88.6446 208.566 88.2969 208.787C87.953 209.004 87.5306 209.112 87.0297 209.112C86.5214 209.112 86.0934 209.004 85.7457 208.787C85.4018 208.566 85.1401 208.277 84.9607 207.918C84.7813 207.555 84.6916 207.157 84.6916 206.723ZM86.0036 206.118V206.723C86.0036 207.045 86.0784 207.336 86.2279 207.598C86.3812 207.86 86.6485 207.991 87.0297 207.991C87.4035 207.991 87.6652 207.86 87.8147 207.598C87.968 207.336 88.0446 207.045 88.0446 206.723V206.118C88.0446 205.796 87.9717 205.505 87.8259 205.243C87.6802 204.981 87.4148 204.851 87.0297 204.851C86.6559 204.851 86.3905 204.981 86.2335 205.243C86.0803 205.505 86.0036 205.796 86.0036 206.118ZM85.2243 215.448L93.119 203.965H94.4591L86.5643 215.448H85.2243ZM105.849 206.836V208.181H100.982V206.836H105.849ZM102.316 215.448V205.837C102.316 205.299 102.434 204.852 102.669 204.497C102.905 204.138 103.217 203.871 103.606 203.696C103.994 203.516 104.417 203.426 104.873 203.426C105.209 203.426 105.497 203.454 105.736 203.511C105.976 203.563 106.153 203.611 106.269 203.656L105.877 205.013C105.798 204.991 105.697 204.965 105.574 204.935C105.45 204.901 105.301 204.884 105.125 204.884C104.718 204.884 104.426 204.985 104.251 205.187C104.079 205.389 103.993 205.68 103.993 206.062V215.448H102.316ZM107.578 215.448V206.836H109.199V208.204H109.288C109.445 207.74 109.722 207.376 110.118 207.11C110.518 206.841 110.971 206.707 111.475 206.707C111.58 206.707 111.703 206.71 111.845 206.718C111.991 206.725 112.105 206.735 112.187 206.746V208.349C112.12 208.331 112 208.31 111.828 208.288C111.657 208.262 111.485 208.248 111.313 208.248C110.916 208.248 110.563 208.333 110.253 208.501C109.946 208.665 109.703 208.895 109.524 209.19C109.345 209.482 109.255 209.815 109.255 210.189V215.448H107.578ZM116.958 215.622C116.15 215.622 115.446 215.437 114.844 215.067C114.242 214.697 113.775 214.179 113.442 213.514C113.109 212.848 112.943 212.071 112.943 211.181C112.943 210.288 113.109 209.506 113.442 208.837C113.775 208.168 114.242 207.649 114.844 207.278C115.446 206.908 116.15 206.723 116.958 206.723C117.765 206.723 118.47 206.908 119.071 207.278C119.673 207.649 120.141 208.168 120.473 208.837C120.806 209.506 120.972 210.288 120.972 211.181C120.972 212.071 120.806 212.848 120.473 213.514C120.141 214.179 119.673 214.697 119.071 215.067C118.47 215.437 117.765 215.622 116.958 215.622ZM116.963 214.214C117.487 214.214 117.92 214.076 118.264 213.8C118.608 213.523 118.862 213.155 119.027 212.695C119.195 212.235 119.279 211.729 119.279 211.175C119.279 210.626 119.195 210.121 119.027 209.661C118.862 209.198 118.608 208.826 118.264 208.546C117.92 208.265 117.487 208.125 116.963 208.125C116.436 208.125 115.999 208.265 115.651 208.546C115.307 208.826 115.051 209.198 114.883 209.661C114.718 210.121 114.636 210.626 114.636 211.175C114.636 211.729 114.718 212.235 114.883 212.695C115.051 213.155 115.307 213.523 115.651 213.8C115.999 214.076 116.436 214.214 116.963 214.214ZM122.844 215.448V206.836H124.453V208.237H124.559C124.739 207.763 125.032 207.392 125.44 207.127C125.847 206.858 126.335 206.723 126.903 206.723C127.479 206.723 127.961 206.858 128.35 207.127C128.742 207.396 129.032 207.766 129.219 208.237H129.309C129.514 207.777 129.841 207.411 130.29 207.138C130.738 206.862 131.273 206.723 131.893 206.723C132.675 206.723 133.312 206.968 133.805 207.458C134.303 207.948 134.551 208.686 134.551 209.673V215.448H132.875V209.83C132.875 209.247 132.716 208.824 132.398 208.562C132.08 208.301 131.701 208.17 131.26 208.17C130.714 208.17 130.29 208.338 129.987 208.675C129.684 209.007 129.533 209.435 129.533 209.959V215.448H127.862V209.723C127.862 209.256 127.716 208.88 127.425 208.596C127.133 208.312 126.754 208.17 126.286 208.17C125.969 208.17 125.675 208.254 125.406 208.422C125.141 208.587 124.926 208.817 124.761 209.112C124.601 209.407 124.52 209.749 124.52 210.138V215.448H122.844ZM142.037 218.678C141.786 218.678 141.558 218.657 141.353 218.616C141.147 218.579 140.994 218.538 140.893 218.493L141.297 217.119C141.603 217.201 141.876 217.237 142.115 217.225C142.354 217.214 142.566 217.125 142.749 216.956C142.936 216.788 143.1 216.513 143.242 216.132L143.45 215.56L140.298 206.836H142.093L144.274 213.519H144.364L146.545 206.836H148.345L144.795 216.597C144.631 217.046 144.422 217.425 144.167 217.736C143.913 218.05 143.61 218.285 143.259 218.442C142.908 218.599 142.5 218.678 142.037 218.678ZM153.339 215.622C152.491 215.622 151.76 215.441 151.147 215.078C150.538 214.712 150.067 214.198 149.734 213.536C149.405 212.871 149.24 212.091 149.24 211.198C149.24 210.316 149.405 209.538 149.734 208.865C150.067 208.192 150.53 207.667 151.124 207.29C151.722 206.912 152.421 206.723 153.221 206.723C153.707 206.723 154.178 206.804 154.634 206.964C155.09 207.125 155.5 207.378 155.862 207.721C156.225 208.065 156.511 208.512 156.72 209.062C156.93 209.607 157.034 210.271 157.034 211.052V211.646H150.188V210.39H155.391C155.391 209.949 155.302 209.559 155.122 209.219C154.943 208.875 154.69 208.604 154.365 208.405C154.044 208.207 153.666 208.108 153.233 208.108C152.762 208.108 152.35 208.224 151.999 208.456C151.651 208.684 151.382 208.983 151.192 209.353C151.005 209.719 150.911 210.118 150.911 210.547V211.529C150.911 212.104 151.012 212.594 151.214 212.998C151.42 213.401 151.706 213.71 152.072 213.923C152.438 214.132 152.866 214.237 153.356 214.237C153.674 214.237 153.963 214.192 154.225 214.102C154.487 214.009 154.713 213.871 154.904 213.687C155.094 213.504 155.24 213.278 155.341 213.009L156.928 213.295C156.801 213.762 156.573 214.171 156.244 214.523C155.918 214.87 155.509 215.141 155.016 215.336C154.526 215.526 153.967 215.622 153.339 215.622ZM165.348 208.938L163.829 209.207C163.765 209.013 163.664 208.828 163.526 208.652C163.391 208.477 163.208 208.333 162.976 208.22C162.745 208.108 162.455 208.052 162.107 208.052C161.633 208.052 161.236 208.159 160.919 208.372C160.601 208.581 160.442 208.852 160.442 209.185C160.442 209.473 160.548 209.704 160.762 209.88C160.975 210.056 161.319 210.2 161.793 210.312L163.161 210.626C163.954 210.809 164.544 211.091 164.933 211.473C165.322 211.854 165.516 212.349 165.516 212.958C165.516 213.474 165.367 213.934 165.068 214.338C164.773 214.738 164.359 215.052 163.829 215.28C163.302 215.508 162.69 215.622 161.995 215.622C161.031 215.622 160.244 215.416 159.635 215.005C159.025 214.59 158.651 214.001 158.513 213.239L160.134 212.992C160.234 213.414 160.442 213.734 160.756 213.951C161.07 214.164 161.479 214.271 161.984 214.271C162.533 214.271 162.973 214.156 163.302 213.928C163.631 213.697 163.795 213.414 163.795 213.082C163.795 212.813 163.694 212.587 163.492 212.403C163.294 212.22 162.989 212.082 162.578 211.988L161.12 211.669C160.317 211.486 159.722 211.194 159.337 210.794C158.956 210.394 158.765 209.888 158.765 209.275C158.765 208.766 158.907 208.321 159.192 207.94C159.476 207.559 159.868 207.262 160.369 207.049C160.87 206.832 161.444 206.723 162.09 206.723C163.021 206.723 163.754 206.925 164.288 207.329C164.823 207.729 165.176 208.265 165.348 208.938ZM171.38 206.836V208.181H166.676V206.836H171.38ZM167.937 204.772H169.614V212.919C169.614 213.244 169.662 213.489 169.76 213.654C169.857 213.814 169.982 213.925 170.135 213.985C170.292 214.041 170.462 214.069 170.645 214.069C170.78 214.069 170.898 214.059 170.999 214.041C171.1 214.022 171.178 214.007 171.234 213.996L171.537 215.381C171.44 215.418 171.301 215.455 171.122 215.493C170.943 215.534 170.718 215.556 170.449 215.56C170.008 215.568 169.597 215.489 169.216 215.325C168.834 215.16 168.526 214.906 168.29 214.562C168.055 214.218 167.937 213.786 167.937 213.267V204.772ZM176.854 215.622C176.005 215.622 175.275 215.441 174.662 215.078C174.052 214.712 173.581 214.198 173.249 213.536C172.92 212.871 172.755 212.091 172.755 211.198C172.755 210.316 172.92 209.538 173.249 208.865C173.581 208.192 174.045 207.667 174.639 207.29C175.237 206.912 175.936 206.723 176.736 206.723C177.222 206.723 177.693 206.804 178.149 206.964C178.605 207.125 179.015 207.378 179.377 207.721C179.74 208.065 180.026 208.512 180.235 209.062C180.444 209.607 180.549 210.271 180.549 211.052V211.646H173.703V210.39H178.906C178.906 209.949 178.816 209.559 178.637 209.219C178.458 208.875 178.205 208.604 177.88 208.405C177.559 208.207 177.181 208.108 176.747 208.108C176.276 208.108 175.865 208.224 175.514 208.456C175.166 208.684 174.897 208.983 174.706 209.353C174.519 209.719 174.426 210.118 174.426 210.547V211.529C174.426 212.104 174.527 212.594 174.729 212.998C174.934 213.401 175.22 213.71 175.587 213.923C175.953 214.132 176.381 214.237 176.871 214.237C177.188 214.237 177.478 214.192 177.74 214.102C178.001 214.009 178.228 213.871 178.418 213.687C178.609 213.504 178.755 213.278 178.856 213.009L180.442 213.295C180.315 213.762 180.087 214.171 179.758 214.523C179.433 214.87 179.024 215.141 178.53 215.336C178.041 215.526 177.482 215.622 176.854 215.622ZM182.409 215.448V206.836H184.03V208.204H184.119C184.276 207.74 184.553 207.376 184.949 207.11C185.349 206.841 185.801 206.707 186.306 206.707C186.411 206.707 186.534 206.71 186.676 206.718C186.822 206.725 186.936 206.735 187.018 206.746V208.349C186.951 208.331 186.831 208.31 186.659 208.288C186.487 208.262 186.315 208.248 186.143 208.248C185.747 208.248 185.394 208.333 185.084 208.501C184.777 208.665 184.534 208.895 184.355 209.19C184.175 209.482 184.086 209.815 184.086 210.189V215.448H182.409ZM191.385 215.616C190.689 215.616 190.069 215.439 189.523 215.084C188.981 214.725 188.555 214.214 188.245 213.553C187.938 212.887 187.785 212.089 187.785 211.159C187.785 210.228 187.94 209.432 188.25 208.77C188.564 208.108 188.994 207.602 189.54 207.25C190.086 206.899 190.704 206.723 191.396 206.723C191.93 206.723 192.36 206.813 192.686 206.993C193.014 207.168 193.269 207.374 193.448 207.609C193.631 207.845 193.773 208.052 193.874 208.232H193.975V203.965H195.652V215.448H194.014V214.108H193.874C193.773 214.291 193.628 214.5 193.437 214.736C193.25 214.971 192.992 215.177 192.663 215.353C192.334 215.528 191.908 215.616 191.385 215.616ZM191.755 214.186C192.237 214.186 192.644 214.059 192.977 213.805C193.314 213.547 193.568 213.19 193.74 212.734C193.915 212.278 194.003 211.747 194.003 211.142C194.003 210.544 193.917 210.02 193.745 209.572C193.573 209.123 193.321 208.774 192.988 208.523C192.656 208.273 192.244 208.148 191.755 208.148C191.25 208.148 190.83 208.278 190.493 208.54C190.157 208.802 189.903 209.159 189.731 209.611C189.562 210.063 189.478 210.574 189.478 211.142C189.478 211.717 189.564 212.235 189.736 212.695C189.908 213.155 190.162 213.519 190.499 213.788C190.839 214.054 191.258 214.186 191.755 214.186ZM200.551 215.639C200.005 215.639 199.512 215.538 199.071 215.336C198.63 215.13 198.28 214.833 198.022 214.444C197.768 214.056 197.641 213.579 197.641 213.015C197.641 212.529 197.734 212.129 197.921 211.815C198.108 211.501 198.36 211.252 198.678 211.069C198.996 210.886 199.351 210.747 199.743 210.654C200.136 210.56 200.536 210.489 200.943 210.441C201.459 210.381 201.878 210.332 202.199 210.295C202.521 210.254 202.754 210.189 202.9 210.099C203.046 210.009 203.119 209.863 203.119 209.661V209.622C203.119 209.133 202.981 208.753 202.704 208.484C202.431 208.215 202.024 208.08 201.482 208.08C200.917 208.08 200.472 208.206 200.147 208.456C199.826 208.703 199.603 208.977 199.48 209.28L197.904 208.921C198.091 208.398 198.364 207.976 198.723 207.654C199.086 207.329 199.502 207.093 199.973 206.948C200.444 206.798 200.94 206.723 201.459 206.723C201.803 206.723 202.168 206.764 202.553 206.847C202.941 206.925 203.304 207.071 203.64 207.284C203.981 207.497 204.259 207.802 204.476 208.198C204.693 208.591 204.801 209.101 204.801 209.729V215.448H203.164V214.271H203.096C202.988 214.487 202.825 214.7 202.609 214.91C202.392 215.119 202.113 215.293 201.773 215.431C201.433 215.569 201.026 215.639 200.551 215.639ZM200.915 214.293C201.379 214.293 201.775 214.201 202.104 214.018C202.437 213.835 202.689 213.596 202.861 213.3C203.037 213.001 203.125 212.682 203.125 212.342V211.231C203.065 211.291 202.949 211.347 202.777 211.4C202.609 211.448 202.416 211.491 202.199 211.529C201.983 211.562 201.771 211.594 201.566 211.624C201.36 211.65 201.188 211.673 201.05 211.691C200.725 211.732 200.428 211.802 200.158 211.899C199.893 211.996 199.68 212.136 199.519 212.319C199.362 212.499 199.284 212.738 199.284 213.037C199.284 213.452 199.437 213.766 199.743 213.979C200.05 214.188 200.441 214.293 200.915 214.293ZM207.785 218.678C207.535 218.678 207.307 218.657 207.101 218.616C206.896 218.579 206.743 218.538 206.642 218.493L207.045 217.119C207.352 217.201 207.625 217.237 207.864 217.225C208.103 217.214 208.314 217.125 208.498 216.956C208.684 216.788 208.849 216.513 208.991 216.132L209.198 215.56L206.047 206.836H207.841L210.023 213.519H210.112L212.294 206.836H214.093L210.544 216.597C210.38 217.046 210.17 217.425 209.916 217.736C209.662 218.05 209.359 218.285 209.008 218.442C208.656 218.599 208.249 218.678 207.785 218.678Z" fill="#E2FD70"/>
<rect x="261.264" y="24" width="205.264" height="211.185" rx="19.737" fill="#131416"/>
<g style="mix-blend-mode:darken">
<rect x="288.896" y="45.7104" width="51.3161" height="51.3161" fill="#D9D9D9"/>
</g>
<path d="M314.249 71.3685C320.237 71.3685 325.092 66.5821 325.092 60.6777C325.092 54.7733 320.237 49.9868 314.249 49.9868C308.261 49.9868 303.407 54.7733 303.407 60.6777C303.407 66.5821 308.261 71.3685 314.249 71.3685Z" stroke="#E2FD70" stroke-width="2.96054"/>
<path d="M322.924 79.9213H335.935M325.092 92.7504H299.647C299.032 92.7505 298.424 92.6217 297.864 92.3724C297.303 92.1231 296.803 91.7591 296.396 91.3045C295.988 90.85 295.684 90.3152 295.503 89.7358C295.321 89.1564 295.267 88.5455 295.343 87.9438L296.189 81.2641C296.385 79.7123 297.15 78.2847 298.34 77.25C299.529 76.2152 301.06 75.6444 302.646 75.645H303.408L325.092 92.7504ZM329.429 73.5068V86.3359V73.5068Z" stroke="#E2FD70" stroke-width="2.96054" stroke-linecap="round" stroke-linejoin="round"/>
<path d="M299.567 128.18V149.711H295.666V131.975H295.54L290.504 135.192V131.618L295.855 128.18H299.567ZM305.033 149.711V146.893L312.508 139.566C313.223 138.844 313.819 138.202 314.296 137.642C314.772 137.081 315.13 136.538 315.368 136.012C315.606 135.486 315.725 134.926 315.725 134.33C315.725 133.65 315.571 133.068 315.263 132.585C314.954 132.094 314.53 131.716 313.991 131.449C313.451 131.183 312.838 131.05 312.151 131.05C311.443 131.05 310.823 131.197 310.29 131.491C309.757 131.779 309.344 132.189 309.049 132.721C308.762 133.254 308.618 133.888 308.618 134.624H304.907C304.907 133.258 305.219 132.07 305.843 131.06C306.467 130.051 307.325 129.27 308.419 128.716C309.519 128.162 310.781 127.885 312.203 127.885C313.647 127.885 314.916 128.155 316.009 128.695C317.103 129.235 317.951 129.974 318.554 130.913C319.163 131.852 319.468 132.925 319.468 134.13C319.468 134.936 319.314 135.728 319.006 136.506C318.697 137.284 318.154 138.146 317.376 139.093C316.605 140.039 315.522 141.185 314.127 142.53L310.416 146.305V146.452H319.794V149.711H305.033Z" fill="white"/>
<path d="M302.058 171.225V185.579H300.068L292.771 175.052H292.638V185.579H290.473V171.225H292.477L299.78 181.767H299.913V171.225H302.058ZM309.689 185.797C308.628 185.797 307.715 185.57 306.949 185.117C306.187 184.659 305.598 184.016 305.182 183.189C304.771 182.358 304.566 181.383 304.566 180.267C304.566 179.164 304.771 178.192 305.182 177.351C305.598 176.51 306.178 175.853 306.921 175.381C307.668 174.91 308.542 174.674 309.542 174.674C310.149 174.674 310.738 174.774 311.308 174.975C311.878 175.176 312.39 175.491 312.843 175.921C313.296 176.351 313.654 176.909 313.915 177.596C314.177 178.278 314.308 179.108 314.308 180.084V180.827H305.75V179.257H312.254C312.254 178.706 312.142 178.218 311.918 177.792C311.694 177.363 311.378 177.024 310.972 176.776C310.57 176.529 310.098 176.405 309.556 176.405C308.967 176.405 308.453 176.55 308.014 176.839C307.579 177.124 307.243 177.498 307.005 177.961C306.771 178.419 306.654 178.916 306.654 179.454V180.68C306.654 181.4 306.78 182.012 307.033 182.516C307.29 183.021 307.647 183.407 308.105 183.673C308.563 183.935 309.098 184.065 309.71 184.065C310.107 184.065 310.469 184.009 310.796 183.897C311.124 183.78 311.406 183.608 311.645 183.379C311.883 183.15 312.065 182.867 312.191 182.53L314.175 182.888C314.016 183.472 313.731 183.984 313.32 184.423C312.913 184.857 312.401 185.196 311.785 185.439C311.173 185.677 310.474 185.797 309.689 185.797ZM318.948 185.579L315.78 174.814H317.945L320.055 182.72H320.16L322.277 174.814H324.443L326.545 182.685H326.65L328.746 174.814H330.912L327.751 185.579H325.613L323.426 177.807H323.265L321.078 185.579H318.948ZM350.214 175.893H348.028C347.943 175.426 347.787 175.015 347.558 174.66C347.329 174.304 347.049 174.003 346.717 173.755C346.385 173.508 346.014 173.321 345.602 173.195C345.196 173.069 344.764 173.005 344.306 173.005C343.479 173.005 342.738 173.213 342.084 173.629C341.435 174.045 340.921 174.655 340.542 175.459C340.168 176.262 339.981 177.243 339.981 178.402C339.981 179.57 340.168 180.556 340.542 181.36C340.921 182.164 341.437 182.771 342.091 183.182C342.745 183.594 343.481 183.799 344.299 183.799C344.752 183.799 345.182 183.738 345.588 183.617C346 183.491 346.371 183.306 346.703 183.063C347.035 182.82 347.315 182.523 347.544 182.173C347.778 181.818 347.939 181.411 348.028 180.953L350.214 180.961C350.097 181.666 349.871 182.316 349.534 182.909C349.203 183.498 348.775 184.007 348.252 184.437C347.733 184.862 347.14 185.192 346.472 185.425C345.803 185.659 345.074 185.776 344.285 185.776C343.042 185.776 341.934 185.481 340.963 184.892C339.991 184.299 339.224 183.451 338.664 182.348C338.108 181.246 337.83 179.93 337.83 178.402C337.83 176.87 338.11 175.554 338.671 174.456C339.231 173.354 339.998 172.508 340.97 171.919C341.941 171.326 343.047 171.029 344.285 171.029C345.046 171.029 345.757 171.139 346.415 171.358C347.079 171.573 347.675 171.891 348.203 172.312C348.731 172.727 349.168 173.237 349.513 173.84C349.859 174.438 350.093 175.122 350.214 175.893ZM359.457 181.115V174.814H361.56V185.579H359.499V183.715H359.387C359.139 184.29 358.742 184.769 358.196 185.152C357.654 185.53 356.978 185.72 356.17 185.72C355.479 185.72 354.866 185.568 354.334 185.264C353.806 184.956 353.39 184.5 353.086 183.897C352.787 183.294 352.638 182.549 352.638 181.661V174.814H354.733V181.409C354.733 182.143 354.937 182.727 355.343 183.161C355.75 183.596 356.278 183.813 356.927 183.813C357.32 183.813 357.71 183.715 358.098 183.519C358.49 183.322 358.815 183.026 359.072 182.629C359.333 182.231 359.462 181.727 359.457 181.115ZM372.443 177.442L370.543 177.778C370.464 177.536 370.338 177.304 370.165 177.085C369.997 176.865 369.768 176.685 369.478 176.545C369.188 176.405 368.826 176.335 368.392 176.335C367.798 176.335 367.303 176.468 366.906 176.734C366.509 176.996 366.31 177.335 366.31 177.75C366.31 178.11 366.443 178.4 366.71 178.62C366.976 178.839 367.406 179.019 367.999 179.159L369.709 179.552C370.7 179.781 371.438 180.133 371.924 180.61C372.41 181.087 372.653 181.706 372.653 182.467C372.653 183.112 372.466 183.687 372.092 184.192C371.723 184.692 371.207 185.084 370.543 185.369C369.885 185.654 369.121 185.797 368.252 185.797C367.046 185.797 366.062 185.54 365.301 185.026C364.539 184.507 364.072 183.771 363.899 182.818L365.925 182.509C366.051 183.037 366.31 183.437 366.703 183.708C367.095 183.974 367.607 184.107 368.238 184.107C368.924 184.107 369.473 183.965 369.885 183.68C370.296 183.39 370.501 183.037 370.501 182.622C370.501 182.285 370.375 182.002 370.123 181.774C369.875 181.545 369.494 181.372 368.981 181.255L367.158 180.855C366.154 180.626 365.411 180.262 364.929 179.762C364.453 179.262 364.214 178.629 364.214 177.863C364.214 177.227 364.392 176.671 364.747 176.194C365.102 175.718 365.593 175.346 366.219 175.08C366.845 174.809 367.562 174.674 368.371 174.674C369.534 174.674 370.45 174.926 371.118 175.431C371.786 175.93 372.228 176.601 372.443 177.442ZM379.983 174.814V176.496H374.102V174.814H379.983ZM375.679 172.234H377.775V182.418C377.775 182.825 377.836 183.131 377.957 183.337C378.079 183.537 378.235 183.675 378.427 183.75C378.623 183.82 378.836 183.855 379.065 183.855C379.233 183.855 379.38 183.843 379.506 183.82C379.632 183.797 379.73 183.778 379.8 183.764L380.179 185.495C380.057 185.542 379.885 185.589 379.66 185.635C379.436 185.687 379.156 185.715 378.819 185.72C378.268 185.729 377.754 185.631 377.277 185.425C376.801 185.22 376.415 184.902 376.121 184.472C375.826 184.042 375.679 183.502 375.679 182.853V172.234ZM386.72 185.797C385.711 185.797 384.83 185.565 384.078 185.103C383.325 184.64 382.741 183.993 382.325 183.161C381.91 182.33 381.702 181.358 381.702 180.246C381.702 179.129 381.91 178.152 382.325 177.316C382.741 176.48 383.325 175.83 384.078 175.367C384.83 174.905 385.711 174.674 386.72 174.674C387.729 174.674 388.61 174.905 389.362 175.367C390.115 175.83 390.699 176.48 391.115 177.316C391.53 178.152 391.738 179.129 391.738 180.246C391.738 181.358 391.53 182.33 391.115 183.161C390.699 183.993 390.115 184.64 389.362 185.103C388.61 185.565 387.729 185.797 386.72 185.797ZM386.727 184.037C387.381 184.037 387.923 183.865 388.353 183.519C388.783 183.173 389.101 182.713 389.306 182.138C389.516 181.563 389.622 180.93 389.622 180.239C389.622 179.552 389.516 178.921 389.306 178.346C389.101 177.767 388.783 177.302 388.353 176.951C387.923 176.601 387.381 176.426 386.727 176.426C386.068 176.426 385.521 176.601 385.087 176.951C384.657 177.302 384.337 177.767 384.127 178.346C383.921 178.921 383.818 179.552 383.818 180.239C383.818 180.93 383.921 181.563 384.127 182.138C384.337 182.713 384.657 183.173 385.087 183.519C385.521 183.865 386.068 184.037 386.727 184.037ZM394.077 185.579V174.814H396.089V176.566H396.222C396.446 175.973 396.813 175.51 397.323 175.178C397.832 174.842 398.442 174.674 399.152 174.674C399.871 174.674 400.474 174.842 400.96 175.178C401.451 175.515 401.813 175.977 402.047 176.566H402.159C402.416 175.991 402.825 175.533 403.385 175.192C403.946 174.846 404.614 174.674 405.39 174.674C406.366 174.674 407.163 174.98 407.78 175.592C408.401 176.204 408.712 177.127 408.712 178.36V185.579H406.616V178.556C406.616 177.828 406.418 177.3 406.021 176.972C405.623 176.645 405.149 176.482 404.598 176.482C403.916 176.482 403.385 176.692 403.007 177.113C402.628 177.528 402.439 178.064 402.439 178.718V185.579H400.35V178.423C400.35 177.839 400.168 177.37 399.804 177.015C399.439 176.659 398.965 176.482 398.381 176.482C397.984 176.482 397.617 176.587 397.281 176.797C396.949 177.003 396.68 177.29 396.475 177.659C396.274 178.028 396.173 178.456 396.173 178.942V185.579H394.077ZM416.161 185.797C415.1 185.797 414.187 185.57 413.42 185.117C412.659 184.659 412.07 184.016 411.654 183.189C411.243 182.358 411.037 181.383 411.037 180.267C411.037 179.164 411.243 178.192 411.654 177.351C412.07 176.51 412.649 175.853 413.392 175.381C414.14 174.91 415.014 174.674 416.013 174.674C416.621 174.674 417.21 174.774 417.78 174.975C418.35 175.176 418.861 175.491 419.315 175.921C419.768 176.351 420.125 176.909 420.387 177.596C420.649 178.278 420.78 179.108 420.78 180.084V180.827H412.222V179.257H418.726C418.726 178.706 418.614 178.218 418.389 177.792C418.165 177.363 417.85 177.024 417.443 176.776C417.041 176.529 416.57 176.405 416.028 176.405C415.439 176.405 414.925 176.55 414.486 176.839C414.051 177.124 413.715 177.498 413.476 177.961C413.243 178.419 413.126 178.916 413.126 179.454V180.68C413.126 181.4 413.252 182.012 413.504 182.516C413.761 183.021 414.119 183.407 414.577 183.673C415.035 183.935 415.57 184.065 416.182 184.065C416.579 184.065 416.941 184.009 417.268 183.897C417.595 183.78 417.878 183.608 418.116 183.379C418.354 183.15 418.537 182.867 418.663 182.53L420.646 182.888C420.487 183.472 420.202 183.984 419.791 184.423C419.385 184.857 418.873 185.196 418.256 185.439C417.644 185.677 416.946 185.797 416.161 185.797ZM423.105 185.579V174.814H425.13V176.524H425.242C425.439 175.944 425.784 175.489 426.28 175.157C426.78 174.821 427.345 174.653 427.976 174.653C428.107 174.653 428.261 174.657 428.438 174.667C428.621 174.676 428.763 174.688 428.866 174.702V176.706C428.782 176.683 428.632 176.657 428.417 176.629C428.202 176.596 427.988 176.58 427.773 176.58C427.277 176.58 426.836 176.685 426.448 176.895C426.065 177.101 425.761 177.388 425.537 177.757C425.312 178.122 425.2 178.538 425.2 179.005V185.579H423.105Z" fill="#E8E8E8"/>
<path d="M293.398 213.519V205.938H294.906V213.519H293.398ZM290.365 210.48V208.977H297.945V210.48H290.365ZM304.36 215.605C303.59 215.605 302.902 215.472 302.296 215.207C301.695 214.941 301.218 214.573 300.867 214.102C300.519 213.628 300.332 213.078 300.306 212.454H302.067C302.089 212.794 302.203 213.089 302.409 213.34C302.618 213.586 302.891 213.777 303.227 213.912C303.564 214.046 303.937 214.114 304.349 214.114C304.801 214.114 305.201 214.035 305.549 213.878C305.9 213.721 306.175 213.502 306.373 213.222C306.571 212.938 306.67 212.611 306.67 212.241C306.67 211.856 306.571 211.517 306.373 211.226C306.178 210.931 305.892 210.699 305.515 210.531C305.141 210.362 304.689 210.278 304.158 210.278H303.188V208.865H304.158C304.584 208.865 304.958 208.789 305.279 208.635C305.605 208.482 305.859 208.269 306.042 207.996C306.225 207.72 306.317 207.396 306.317 207.026C306.317 206.671 306.236 206.363 306.076 206.101C305.919 205.836 305.694 205.628 305.403 205.479C305.115 205.329 304.775 205.254 304.382 205.254C304.008 205.254 303.659 205.323 303.334 205.462C303.012 205.596 302.751 205.791 302.549 206.045C302.347 206.295 302.239 206.596 302.224 206.948H300.547C300.566 206.327 300.749 205.781 301.097 205.31C301.448 204.839 301.911 204.471 302.487 204.206C303.063 203.94 303.702 203.808 304.405 203.808C305.141 203.808 305.777 203.952 306.311 204.239C306.849 204.524 307.264 204.903 307.556 205.378C307.851 205.852 307.997 206.372 307.993 206.936C307.997 207.579 307.818 208.125 307.455 208.574C307.096 209.022 306.618 209.323 306.02 209.476V209.566C306.782 209.682 307.373 209.985 307.791 210.475C308.214 210.964 308.423 211.572 308.419 212.297C308.423 212.929 308.247 213.495 307.892 213.996C307.541 214.497 307.061 214.891 306.451 215.179C305.842 215.463 305.145 215.605 304.36 215.605ZM316.533 213.295V212.689C316.533 212.256 316.623 211.859 316.802 211.501C316.985 211.138 317.251 210.848 317.598 210.632C317.95 210.411 318.374 210.301 318.871 210.301C319.379 210.301 319.806 210.409 320.149 210.626C320.493 210.843 320.753 211.132 320.929 211.495C321.108 211.858 321.198 212.256 321.198 212.689V213.295C321.198 213.728 321.108 214.127 320.929 214.489C320.749 214.848 320.486 215.138 320.138 215.358C319.794 215.575 319.372 215.683 318.871 215.683C318.366 215.683 317.94 215.575 317.593 215.358C317.245 215.138 316.981 214.848 316.802 214.489C316.623 214.127 316.533 213.728 316.533 213.295ZM317.839 212.689V213.295C317.839 213.616 317.916 213.908 318.069 214.17C318.222 214.431 318.49 214.562 318.871 214.562C319.249 214.562 319.512 214.431 319.662 214.17C319.811 213.908 319.886 213.616 319.886 213.295V212.689C319.886 212.368 319.813 212.076 319.667 211.815C319.525 211.553 319.26 211.422 318.871 211.422C318.497 211.422 318.232 211.553 318.075 211.815C317.918 212.076 317.839 212.368 317.839 212.689ZM310.758 206.723V206.118C310.758 205.684 310.847 205.286 311.027 204.923C311.21 204.561 311.475 204.271 311.823 204.054C312.174 203.838 312.599 203.729 313.096 203.729C313.604 203.729 314.03 203.838 314.374 204.054C314.718 204.271 314.978 204.561 315.154 204.923C315.329 205.286 315.417 205.684 315.417 206.118V206.723C315.417 207.157 315.327 207.555 315.148 207.918C314.972 208.277 314.711 208.566 314.363 208.787C314.019 209.004 313.597 209.112 313.096 209.112C312.587 209.112 312.159 209.004 311.812 208.787C311.468 208.566 311.206 208.277 311.027 207.918C310.847 207.555 310.758 207.157 310.758 206.723ZM312.07 206.118V206.723C312.07 207.045 312.144 207.336 312.294 207.598C312.447 207.86 312.714 207.991 313.096 207.991C313.47 207.991 313.731 207.86 313.881 207.598C314.034 207.336 314.111 207.045 314.111 206.723V206.118C314.111 205.796 314.038 205.505 313.892 205.243C313.746 204.981 313.481 204.851 313.096 204.851C312.722 204.851 312.457 204.981 312.3 205.243C312.146 205.505 312.07 205.796 312.07 206.118ZM311.29 215.448L319.185 203.965H320.525L312.63 215.448H311.29ZM331.915 206.836V208.181H327.048V206.836H331.915ZM328.382 215.448V205.837C328.382 205.299 328.5 204.852 328.735 204.497C328.971 204.138 329.283 203.871 329.672 203.696C330.06 203.516 330.483 203.426 330.939 203.426C331.275 203.426 331.563 203.454 331.802 203.511C332.042 203.563 332.219 203.611 332.335 203.656L331.943 205.013C331.864 204.991 331.763 204.965 331.64 204.935C331.516 204.901 331.367 204.884 331.191 204.884C330.784 204.884 330.492 204.985 330.316 205.187C330.145 205.389 330.059 205.68 330.059 206.062V215.448H328.382ZM333.644 215.448V206.836H335.265V208.204H335.354C335.511 207.74 335.788 207.376 336.184 207.11C336.584 206.841 337.037 206.707 337.541 206.707C337.646 206.707 337.769 206.71 337.911 206.718C338.057 206.725 338.171 206.735 338.253 206.746V208.349C338.186 208.331 338.066 208.31 337.894 208.288C337.723 208.262 337.551 208.248 337.379 208.248C336.982 208.248 336.629 208.333 336.319 208.501C336.012 208.665 335.769 208.895 335.59 209.19C335.411 209.482 335.321 209.815 335.321 210.189V215.448H333.644ZM343.024 215.622C342.216 215.622 341.512 215.437 340.91 215.067C340.308 214.697 339.841 214.179 339.508 213.514C339.175 212.848 339.009 212.071 339.009 211.181C339.009 210.288 339.175 209.506 339.508 208.837C339.841 208.168 340.308 207.649 340.91 207.278C341.512 206.908 342.216 206.723 343.024 206.723C343.831 206.723 344.536 206.908 345.137 207.278C345.739 207.649 346.207 208.168 346.539 208.837C346.872 209.506 347.038 210.288 347.038 211.181C347.038 212.071 346.872 212.848 346.539 213.514C346.207 214.179 345.739 214.697 345.137 215.067C344.536 215.437 343.831 215.622 343.024 215.622ZM343.029 214.214C343.552 214.214 343.986 214.076 344.33 213.8C344.674 213.523 344.928 213.155 345.093 212.695C345.261 212.235 345.345 211.729 345.345 211.175C345.345 210.626 345.261 210.121 345.093 209.661C344.928 209.198 344.674 208.826 344.33 208.546C343.986 208.265 343.552 208.125 343.029 208.125C342.502 208.125 342.065 208.265 341.717 208.546C341.373 208.826 341.117 209.198 340.949 209.661C340.784 210.121 340.702 210.626 340.702 211.175C340.702 211.729 340.784 212.235 340.949 212.695C341.117 213.155 341.373 213.523 341.717 213.8C342.065 214.076 342.502 214.214 343.029 214.214ZM348.91 215.448V206.836H350.519V208.237H350.625C350.805 207.763 351.098 207.392 351.506 207.127C351.913 206.858 352.401 206.723 352.969 206.723C353.545 206.723 354.027 206.858 354.416 207.127C354.808 207.396 355.098 207.766 355.285 208.237H355.375C355.58 207.777 355.907 207.411 356.356 207.138C356.804 206.862 357.339 206.723 357.959 206.723C358.741 206.723 359.378 206.968 359.871 207.458C360.369 207.948 360.617 208.686 360.617 209.673V215.448H358.941V209.83C358.941 209.247 358.782 208.824 358.464 208.562C358.146 208.301 357.767 208.17 357.326 208.17C356.78 208.17 356.356 208.338 356.053 208.675C355.75 209.007 355.599 209.435 355.599 209.959V215.448H353.928V209.723C353.928 209.256 353.782 208.88 353.491 208.596C353.199 208.312 352.82 208.17 352.352 208.17C352.035 208.17 351.741 208.254 351.472 208.422C351.207 208.587 350.992 208.817 350.827 209.112C350.666 209.407 350.586 209.749 350.586 210.138V215.448H348.91ZM368.103 218.678C367.852 218.678 367.624 218.657 367.419 218.616C367.213 218.579 367.06 218.538 366.959 218.493L367.363 217.119C367.669 217.201 367.942 217.237 368.181 217.225C368.42 217.214 368.632 217.125 368.815 216.956C369.002 216.788 369.166 216.513 369.308 216.132L369.516 215.56L366.364 206.836H368.159L370.34 213.519H370.43L372.611 206.836H374.411L370.861 216.597C370.697 217.046 370.488 217.425 370.233 217.736C369.979 218.05 369.676 218.285 369.325 218.442C368.974 218.599 368.566 218.678 368.103 218.678ZM379.405 215.622C378.557 215.622 377.826 215.441 377.213 215.078C376.603 214.712 376.132 214.198 375.8 213.536C375.471 212.871 375.306 212.091 375.306 211.198C375.306 210.316 375.471 209.538 375.8 208.865C376.132 208.192 376.596 207.667 377.19 207.29C377.788 206.912 378.487 206.723 379.287 206.723C379.773 206.723 380.244 206.804 380.7 206.964C381.156 207.125 381.566 207.378 381.928 207.721C382.291 208.065 382.577 208.512 382.786 209.062C382.996 209.607 383.1 210.271 383.1 211.052V211.646H376.254V210.39H381.457C381.457 209.949 381.368 209.559 381.188 209.219C381.009 208.875 380.756 208.604 380.431 208.405C380.11 208.207 379.732 208.108 379.299 208.108C378.828 208.108 378.416 208.224 378.065 208.456C377.717 208.684 377.448 208.983 377.258 209.353C377.071 209.719 376.977 210.118 376.977 210.547V211.529C376.977 212.104 377.078 212.594 377.28 212.998C377.486 213.401 377.772 213.71 378.138 213.923C378.504 214.132 378.932 214.237 379.422 214.237C379.74 214.237 380.029 214.192 380.291 214.102C380.553 214.009 380.779 213.871 380.97 213.687C381.16 213.504 381.306 213.278 381.407 213.009L382.994 213.295C382.867 213.762 382.639 214.171 382.31 214.523C381.984 214.87 381.575 215.141 381.082 215.336C380.592 215.526 380.033 215.622 379.405 215.622ZM391.414 208.938L389.895 209.207C389.831 209.013 389.73 208.828 389.592 208.652C389.457 208.477 389.274 208.333 389.042 208.22C388.811 208.108 388.521 208.052 388.173 208.052C387.699 208.052 387.302 208.159 386.985 208.372C386.667 208.581 386.508 208.852 386.508 209.185C386.508 209.473 386.614 209.704 386.828 209.88C387.041 210.056 387.385 210.2 387.859 210.312L389.227 210.626C390.02 210.809 390.61 211.091 390.999 211.473C391.388 211.854 391.582 212.349 391.582 212.958C391.582 213.474 391.433 213.934 391.134 214.338C390.838 214.738 390.425 215.052 389.895 215.28C389.368 215.508 388.756 215.622 388.061 215.622C387.097 215.622 386.31 215.416 385.701 215.005C385.091 214.59 384.717 214.001 384.579 213.239L386.2 212.992C386.3 213.414 386.508 213.734 386.822 213.951C387.136 214.164 387.545 214.271 388.05 214.271C388.599 214.271 389.039 214.156 389.368 213.928C389.696 213.697 389.861 213.414 389.861 213.082C389.861 212.813 389.76 212.587 389.558 212.403C389.36 212.22 389.055 212.082 388.644 211.988L387.186 211.669C386.383 211.486 385.788 211.194 385.403 210.794C385.022 210.394 384.831 209.888 384.831 209.275C384.831 208.766 384.973 208.321 385.258 207.94C385.542 207.559 385.934 207.262 386.435 207.049C386.936 206.832 387.51 206.723 388.156 206.723C389.087 206.723 389.82 206.925 390.354 207.329C390.889 207.729 391.242 208.265 391.414 208.938ZM397.446 206.836V208.181H392.742V206.836H397.446ZM394.003 204.772H395.68V212.919C395.68 213.244 395.728 213.489 395.826 213.654C395.923 213.814 396.048 213.925 396.201 213.985C396.358 214.041 396.528 214.069 396.711 214.069C396.846 214.069 396.964 214.059 397.065 214.041C397.166 214.022 397.244 214.007 397.3 213.996L397.603 215.381C397.506 215.418 397.367 215.455 397.188 215.493C397.009 215.534 396.784 215.556 396.515 215.56C396.074 215.568 395.663 215.489 395.282 215.325C394.9 215.16 394.592 214.906 394.356 214.562C394.121 214.218 394.003 213.786 394.003 213.267V204.772ZM402.92 215.622C402.071 215.622 401.341 215.441 400.728 215.078C400.118 214.712 399.647 214.198 399.315 213.536C398.986 212.871 398.821 212.091 398.821 211.198C398.821 210.316 398.986 209.538 399.315 208.865C399.647 208.192 400.111 207.667 400.705 207.29C401.303 206.912 402.002 206.723 402.802 206.723C403.288 206.723 403.759 206.804 404.215 206.964C404.671 207.125 405.08 207.378 405.443 207.721C405.806 208.065 406.092 208.512 406.301 209.062C406.51 209.607 406.615 210.271 406.615 211.052V211.646H399.769V210.39H404.972C404.972 209.949 404.882 209.559 404.703 209.219C404.524 208.875 404.271 208.604 403.946 208.405C403.625 208.207 403.247 208.108 402.813 208.108C402.342 208.108 401.931 208.224 401.58 208.456C401.232 208.684 400.963 208.983 400.772 209.353C400.585 209.719 400.492 210.118 400.492 210.547V211.529C400.492 212.104 400.593 212.594 400.795 212.998C401 213.401 401.286 213.71 401.653 213.923C402.019 214.132 402.447 214.237 402.937 214.237C403.254 214.237 403.544 214.192 403.806 214.102C404.067 214.009 404.294 213.871 404.484 213.687C404.675 213.504 404.821 213.278 404.922 213.009L406.508 213.295C406.381 213.762 406.153 214.171 405.824 214.523C405.499 214.87 405.09 215.141 404.596 215.336C404.107 215.526 403.548 215.622 402.92 215.622ZM408.475 215.448V206.836H410.096V208.204H410.185C410.342 207.74 410.619 207.376 411.015 207.11C411.415 206.841 411.867 206.707 412.372 206.707C412.477 206.707 412.6 206.71 412.742 206.718C412.888 206.725 413.002 206.735 413.084 206.746V208.349C413.017 208.331 412.897 208.31 412.725 208.288C412.553 208.262 412.381 208.248 412.209 208.248C411.813 208.248 411.46 208.333 411.15 208.501C410.843 208.665 410.6 208.895 410.421 209.19C410.241 209.482 410.152 209.815 410.152 210.189V215.448H408.475ZM417.451 215.616C416.755 215.616 416.135 215.439 415.589 215.084C415.047 214.725 414.621 214.214 414.311 213.553C414.004 212.887 413.851 212.089 413.851 211.159C413.851 210.228 414.006 209.432 414.316 208.77C414.63 208.108 415.06 207.602 415.606 207.25C416.152 206.899 416.77 206.723 417.462 206.723C417.996 206.723 418.426 206.813 418.752 206.993C419.08 207.168 419.335 207.374 419.514 207.609C419.697 207.845 419.839 208.052 419.94 208.232H420.041V203.965H421.718V215.448H420.08V214.108H419.94C419.839 214.291 419.693 214.5 419.503 214.736C419.316 214.971 419.058 215.177 418.729 215.353C418.4 215.528 417.974 215.616 417.451 215.616ZM417.821 214.186C418.303 214.186 418.71 214.059 419.043 213.805C419.379 213.547 419.634 213.19 419.806 212.734C419.981 212.278 420.069 211.747 420.069 211.142C420.069 210.544 419.983 210.02 419.811 209.572C419.639 209.123 419.387 208.774 419.054 208.523C418.722 208.273 418.31 208.148 417.821 208.148C417.316 208.148 416.896 208.278 416.559 208.54C416.223 208.802 415.969 209.159 415.797 209.611C415.628 210.063 415.544 210.574 415.544 211.142C415.544 211.717 415.63 212.235 415.802 212.695C415.974 213.155 416.228 213.519 416.565 213.788C416.905 214.054 417.324 214.186 417.821 214.186ZM426.617 215.639C426.071 215.639 425.578 215.538 425.137 215.336C424.695 215.13 424.346 214.833 424.088 214.444C423.834 214.056 423.707 213.579 423.707 213.015C423.707 212.529 423.8 212.129 423.987 211.815C424.174 211.501 424.426 211.252 424.744 211.069C425.062 210.886 425.417 210.747 425.809 210.654C426.202 210.56 426.602 210.489 427.009 210.441C427.525 210.381 427.944 210.332 428.265 210.295C428.587 210.254 428.82 210.189 428.966 210.099C429.112 210.009 429.185 209.863 429.185 209.661V209.622C429.185 209.133 429.047 208.753 428.77 208.484C428.497 208.215 428.09 208.08 427.548 208.08C426.983 208.08 426.538 208.206 426.213 208.456C425.892 208.703 425.669 208.977 425.546 209.28L423.97 208.921C424.157 208.398 424.43 207.976 424.789 207.654C425.152 207.329 425.568 207.093 426.039 206.948C426.51 206.798 427.006 206.723 427.525 206.723C427.869 206.723 428.234 206.764 428.619 206.847C429.007 206.925 429.37 207.071 429.706 207.284C430.047 207.497 430.325 207.802 430.542 208.198C430.759 208.591 430.867 209.101 430.867 209.729V215.448H429.23V214.271H429.162C429.054 214.487 428.891 214.7 428.675 214.91C428.458 215.119 428.179 215.293 427.839 215.431C427.499 215.569 427.092 215.639 426.617 215.639ZM426.981 214.293C427.445 214.293 427.841 214.201 428.17 214.018C428.503 213.835 428.755 213.596 428.927 213.3C429.103 213.001 429.191 212.682 429.191 212.342V211.231C429.131 211.291 429.015 211.347 428.843 211.4C428.675 211.448 428.482 211.491 428.265 211.529C428.049 211.562 427.837 211.594 427.632 211.624C427.426 211.65 427.254 211.673 427.116 211.691C426.791 211.732 426.493 211.802 426.224 211.899C425.959 211.996 425.746 212.136 425.585 212.319C425.428 212.499 425.35 212.738 425.35 213.037C425.35 213.452 425.503 213.766 425.809 213.979C426.116 214.188 426.507 214.293 426.981 214.293ZM433.851 218.678C433.601 218.678 433.373 218.657 433.167 218.616C432.962 218.579 432.808 218.538 432.708 218.493L433.111 217.119C433.418 217.201 433.691 217.237 433.93 217.225C434.169 217.214 434.38 217.125 434.563 216.956C434.75 216.788 434.915 216.513 435.057 216.132L435.264 215.56L432.113 206.836H433.907L436.089 213.519H436.178L438.359 206.836H440.159L436.61 216.597C436.446 217.046 436.236 217.425 435.982 217.736C435.728 218.05 435.425 218.285 435.074 218.442C434.722 218.599 434.315 218.678 433.851 218.678Z" fill="#E2FD70"/>
<rect x="36" y="255.186" width="205.264" height="211.185" rx="19.737" fill="#131416"/>
<g style="mix-blend-mode:darken">
<rect x="59.6846" y="274.923" width="51.3161" height="51.3161" fill="#D9D9D9"/>
</g>
<path d="M105.477 288.643L85.7876 277.062L66.0986 288.643V311.807L85.7876 323.389L105.477 311.807V288.643Z" stroke="#E2FD70" stroke-width="3.84871" stroke-linejoin="round"/>
<rect x="261.264" y="255.186" width="205.264" height="211.185" rx="19.737" fill="#131416"/>
<g style="mix-blend-mode:darken">
<rect x="288.896" y="276.896" width="51.3161" height="51.3161" fill="#D9D9D9"/>
</g>
<path d="M324.416 284.186H329.875C330.46 284.186 331.021 284.421 331.435 284.839C331.848 285.256 332.081 285.823 332.081 286.414V323.164C332.081 323.754 331.848 324.321 331.435 324.739C331.021 325.156 330.46 325.391 329.875 325.391H298.997C298.412 325.391 297.851 325.156 297.437 324.739C297.023 324.321 296.791 323.754 296.791 323.164V286.414C296.791 285.823 297.023 285.256 297.437 284.839C297.851 284.421 298.412 284.186 298.997 284.186H306.716V287.527H322.155V284.186H324.416Z" stroke="#E2FD70" stroke-width="2.96054" stroke-linejoin="round"/>
<path d="M317.746 297.549L308.923 306.459H319.956L311.129 315.368M306.718 280.844H322.157V287.526H306.718V280.844Z" stroke="#E2FD70" stroke-width="2.96054" stroke-linecap="round" stroke-linejoin="round"/>
</g>
<defs>
<linearGradient id="paint0_linear_77_834" x1="261" y1="142" x2="261" y2="284" gradientUnits="userSpaceOnUse">
<stop stop-color="#1B1B1B"/>
<stop offset="1" stop-color="#1B1B1B" stop-opacity="0"/>
</linearGradient>
</defs>
</svg>
