<svg width="522" height="284" viewBox="0 0 522 284" fill="none" xmlns="http://www.w3.org/2000/svg">
<mask id="mask0_77_832" style="mask-type:alpha" maskUnits="userSpaceOnUse" x="0" y="0" width="522" height="284">
<rect width="522" height="284" rx="20" fill="url(#paint0_linear_77_832)"/>
</mask>
<g mask="url(#mask0_77_832)">
<rect x="42" y="24" width="205.264" height="211.185" rx="19.737" fill="#131416"/>
<g style="mix-blend-mode:darken">
<rect x="65.6846" y="43.7378" width="51.3161" height="51.3161" fill="#D9D9D9"/>
</g>
<path d="M111.477 57.4577L91.7876 45.876L72.0986 57.4577V80.6212L91.7876 92.203L111.477 80.6212V57.4577Z" stroke="#E2FD70" stroke-width="3.84871" stroke-linejoin="round"/>
<path d="M82.521 71.3557V75.9884M91.7864 66.723V75.9884V66.723ZM101.052 62.0903V75.9884V62.0903Z" stroke="#E2FD70" stroke-width="3.84871" stroke-linecap="round" stroke-linejoin="round"/>
<path d="M74.5368 150.43V123.516H76.2609V150.43H74.5368ZM79.5096 132.126C79.4114 131.208 78.9979 130.493 78.269 129.981C77.5471 129.47 76.6079 129.214 75.4514 129.214C74.6384 129.214 73.941 129.337 73.3593 129.582C72.7775 129.827 72.3325 130.16 72.0241 130.581C71.7157 131.001 71.558 131.481 71.551 132.021C71.551 132.469 71.6526 132.858 71.8559 133.188C72.0661 133.517 72.35 133.798 72.7075 134.029C73.0649 134.253 73.4609 134.442 73.8955 134.597C74.33 134.751 74.7681 134.881 75.2096 134.986L77.2282 135.49C78.0412 135.68 78.8227 135.935 79.5726 136.258C80.3296 136.58 81.0059 136.987 81.6017 137.477C82.2045 137.968 82.6811 138.56 83.0315 139.254C83.3819 139.948 83.5572 140.761 83.5572 141.693C83.5572 142.955 83.2348 144.066 82.5899 145.026C81.9451 145.979 81.013 146.726 79.7934 147.265C78.5809 147.798 77.1125 148.064 75.3883 148.064C73.7132 148.064 72.2589 147.805 71.0253 147.286C69.7988 146.768 68.8386 146.011 68.1447 145.015C67.4578 144.02 67.0863 142.808 67.0303 141.378H70.8676C70.9237 142.128 71.155 142.751 71.5615 143.249C71.968 143.747 72.4972 144.118 73.149 144.364C73.8078 144.609 74.5438 144.731 75.3568 144.731C76.2049 144.731 76.9478 144.605 77.5856 144.353C78.2304 144.094 78.7351 143.736 79.0995 143.281C79.464 142.818 79.6497 142.278 79.6567 141.662C79.6497 141.101 79.485 140.638 79.1626 140.274C78.8402 139.902 78.3881 139.594 77.8064 139.349C77.2317 139.096 76.5588 138.872 75.7878 138.676L73.3382 138.045C71.565 137.589 70.1632 136.899 69.1329 135.974C68.1096 135.042 67.598 133.805 67.598 132.263C67.598 130.994 67.9414 129.883 68.6283 128.93C69.3222 127.977 70.2649 127.237 71.4564 126.712C72.6479 126.179 73.9971 125.913 75.504 125.913C77.0319 125.913 78.3706 126.179 79.5201 126.712C80.6765 127.237 81.5842 127.97 82.243 128.909C82.9018 129.841 83.2418 130.914 83.2628 132.126H79.5096ZM94.3096 148.033C92.9079 148.033 91.6533 147.77 90.5459 147.244C89.4385 146.711 88.5589 145.983 87.907 145.057C87.2622 144.132 86.9188 143.074 86.8767 141.882H90.6615C90.7316 142.765 91.1136 143.487 91.8075 144.048C92.5014 144.602 93.3354 144.879 94.3096 144.879C95.0736 144.879 95.7535 144.703 96.3492 144.353C96.945 144.003 97.4146 143.515 97.758 142.892C98.1014 142.268 98.2696 141.556 98.2626 140.757C98.2696 139.944 98.0979 139.223 97.7475 138.592C97.397 137.961 96.9169 137.467 96.3072 137.109C95.6974 136.745 94.9965 136.563 94.2045 136.563C93.5597 136.556 92.9254 136.675 92.3016 136.92C91.6778 137.165 91.1837 137.488 90.8192 137.887L87.2973 137.309L88.4222 126.207H100.912V129.466H91.6498L91.0295 135.175H91.1557C91.5552 134.705 92.1194 134.316 92.8483 134.008C93.5772 133.693 94.3762 133.535 95.2453 133.535C96.549 133.535 97.7124 133.843 98.7357 134.46C99.759 135.07 100.565 135.911 101.154 136.983C101.743 138.056 102.037 139.282 102.037 140.663C102.037 142.086 101.707 143.354 101.049 144.469C100.397 145.576 99.4892 146.449 98.3257 147.086C97.1693 147.717 95.8306 148.033 94.3096 148.033ZM109.07 142.671L109.06 138.077H109.67L115.473 131.59H119.92L112.781 139.538H111.993L109.07 142.671ZM105.601 147.738V126.207H109.407V147.738H105.601ZM115.736 147.738L110.479 140.389L113.044 137.709L120.288 147.738H115.736Z" fill="white"/>
<path d="M66.5537 171.117V169.253H77.6627V171.117H73.1841V183.607H71.0253V171.117H66.5537ZM82.9229 183.824C81.9136 183.824 81.0328 183.593 80.2805 183.13C79.5282 182.668 78.9442 182.02 78.5283 181.189C78.1125 180.357 77.9045 179.385 77.9045 178.273C77.9045 177.156 78.1125 176.18 78.5283 175.343C78.9442 174.507 79.5282 173.857 80.2805 173.395C81.0328 172.932 81.9136 172.701 82.9229 172.701C83.9321 172.701 84.8129 172.932 85.5652 173.395C86.3175 173.857 86.9016 174.507 87.3174 175.343C87.7333 176.18 87.9412 177.156 87.9412 178.273C87.9412 179.385 87.7333 180.357 87.3174 181.189C86.9016 182.02 86.3175 182.668 85.5652 183.13C84.8129 183.593 83.9321 183.824 82.9229 183.824ZM82.9299 182.065C83.584 182.065 84.1261 181.892 84.5559 181.546C84.9858 181.2 85.3035 180.74 85.5091 180.165C85.7194 179.591 85.8245 178.957 85.8245 178.266C85.8245 177.579 85.7194 176.948 85.5091 176.374C85.3035 175.794 84.9858 175.329 84.5559 174.979C84.1261 174.628 83.584 174.453 82.9299 174.453C82.271 174.453 81.7244 174.628 81.2898 174.979C80.8599 175.329 80.5399 175.794 80.3296 176.374C80.124 176.948 80.0212 177.579 80.0212 178.266C80.0212 178.957 80.124 179.591 80.3296 180.165C80.5399 180.74 80.8599 181.2 81.2898 181.546C81.7244 181.892 82.271 182.065 82.9299 182.065ZM95.3058 172.841V174.523H89.4253V172.841H95.3058ZM91.0023 170.262H93.098V180.446C93.098 180.852 93.1587 181.158 93.2802 181.364C93.4017 181.565 93.5582 181.703 93.7498 181.777C93.9461 181.847 94.1587 181.883 94.3876 181.883C94.5558 181.883 94.703 181.871 94.8292 181.847C94.9553 181.824 95.0535 181.805 95.1235 181.791L95.502 183.523C95.3805 183.569 95.2077 183.616 94.9834 183.663C94.7591 183.714 94.4787 183.742 94.1423 183.747C93.5909 183.756 93.077 183.658 92.6004 183.452C92.1238 183.247 91.7383 182.929 91.4439 182.499C91.1495 182.069 91.0023 181.53 91.0023 180.88V170.262ZM100.757 183.845C100.075 183.845 99.4579 183.719 98.9066 183.467C98.3552 183.21 97.9183 182.838 97.5959 182.352C97.2782 181.866 97.1193 181.27 97.1193 180.565C97.1193 179.957 97.2361 179.457 97.4698 179.065C97.7034 178.672 98.0188 178.362 98.416 178.133C98.8131 177.904 99.257 177.731 99.7476 177.614C100.238 177.497 100.738 177.409 101.248 177.348C101.892 177.273 102.416 177.212 102.818 177.166C103.219 177.114 103.511 177.032 103.694 176.92C103.876 176.808 103.967 176.626 103.967 176.374V176.324C103.967 175.712 103.794 175.238 103.448 174.902C103.107 174.565 102.598 174.397 101.92 174.397C101.215 174.397 100.659 174.554 100.252 174.867C99.8504 175.175 99.5724 175.518 99.4182 175.897L97.4487 175.448C97.6824 174.794 98.0235 174.266 98.472 173.864C98.9253 173.458 99.4463 173.163 100.035 172.981C100.624 172.794 101.243 172.701 101.892 172.701C102.322 172.701 102.778 172.752 103.259 172.855C103.745 172.953 104.198 173.135 104.619 173.402C105.044 173.668 105.392 174.049 105.663 174.544C105.934 175.035 106.07 175.673 106.07 176.458V183.607H104.023V182.135H103.939C103.803 182.406 103.6 182.672 103.329 182.934C103.058 183.196 102.71 183.413 102.285 183.586C101.86 183.759 101.35 183.845 100.757 183.845ZM101.212 182.163C101.792 182.163 102.287 182.048 102.698 181.819C103.114 181.59 103.43 181.291 103.645 180.922C103.864 180.548 103.974 180.149 103.974 179.724V178.336C103.899 178.411 103.754 178.481 103.539 178.546C103.329 178.607 103.089 178.661 102.818 178.707C102.547 178.75 102.283 178.789 102.026 178.827C101.769 178.859 101.554 178.887 101.381 178.911C100.974 178.962 100.603 179.049 100.266 179.17C99.9345 179.292 99.6682 179.467 99.4673 179.696C99.271 179.92 99.1729 180.219 99.1729 180.593C99.1729 181.112 99.3645 181.504 99.7476 181.77C100.131 182.032 100.619 182.163 101.212 182.163ZM110.957 169.253V183.607H108.861V169.253H110.957ZM126.996 173.023C126.922 172.36 126.613 171.846 126.071 171.481C125.529 171.112 124.847 170.928 124.025 170.928C123.436 170.928 122.927 171.021 122.497 171.208C122.067 171.39 121.733 171.643 121.494 171.965C121.261 172.283 121.144 172.645 121.144 173.051C121.144 173.392 121.223 173.687 121.382 173.934C121.546 174.182 121.758 174.39 122.02 174.558C122.286 174.722 122.571 174.86 122.875 174.972C123.179 175.079 123.471 175.168 123.751 175.238L125.153 175.603C125.611 175.715 126.081 175.867 126.562 176.058C127.043 176.25 127.489 176.502 127.9 176.815C128.312 177.128 128.643 177.516 128.896 177.979C129.153 178.441 129.281 178.995 129.281 179.64C129.281 180.453 129.071 181.175 128.65 181.805C128.235 182.436 127.629 182.934 126.835 183.298C126.045 183.663 125.09 183.845 123.969 183.845C122.894 183.845 121.964 183.674 121.179 183.333C120.394 182.992 119.78 182.509 119.336 181.883C118.892 181.252 118.646 180.504 118.6 179.64H120.772C120.815 180.158 120.983 180.591 121.277 180.936C121.576 181.277 121.957 181.532 122.42 181.7C122.887 181.864 123.398 181.946 123.954 181.946C124.567 181.946 125.111 181.85 125.588 181.658C126.069 181.462 126.447 181.191 126.723 180.845C126.999 180.495 127.137 180.086 127.137 179.619C127.137 179.193 127.015 178.845 126.772 178.574C126.534 178.303 126.209 178.079 125.798 177.901C125.391 177.724 124.931 177.567 124.417 177.432L122.721 176.969C121.571 176.656 120.66 176.196 119.987 175.589C119.319 174.981 118.985 174.177 118.985 173.178C118.985 172.35 119.209 171.629 119.658 171.012C120.107 170.395 120.714 169.916 121.48 169.575C122.247 169.229 123.111 169.056 124.074 169.056C125.046 169.056 125.903 169.227 126.646 169.568C127.394 169.909 127.982 170.379 128.412 170.977C128.842 171.57 129.066 172.252 129.085 173.023H126.996ZM134.834 183.845C134.152 183.845 133.535 183.719 132.984 183.467C132.432 183.21 131.995 182.838 131.673 182.352C131.355 181.866 131.196 181.27 131.196 180.565C131.196 179.957 131.313 179.457 131.547 179.065C131.78 178.672 132.096 178.362 132.493 178.133C132.89 177.904 133.334 177.731 133.825 177.614C134.315 177.497 134.815 177.409 135.325 177.348C135.969 177.273 136.493 177.212 136.895 177.166C137.296 177.114 137.588 177.032 137.771 176.92C137.953 176.808 138.044 176.626 138.044 176.374V176.324C138.044 175.712 137.871 175.238 137.525 174.902C137.184 174.565 136.675 174.397 135.997 174.397C135.292 174.397 134.736 174.554 134.329 174.867C133.928 175.175 133.65 175.518 133.495 175.897L131.526 175.448C131.759 174.794 132.101 174.266 132.549 173.864C133.002 173.458 133.523 173.163 134.112 172.981C134.701 172.794 135.32 172.701 135.969 172.701C136.399 172.701 136.855 172.752 137.336 172.855C137.822 172.953 138.275 173.135 138.696 173.402C139.121 173.668 139.469 174.049 139.74 174.544C140.011 175.035 140.147 175.673 140.147 176.458V183.607H138.1V182.135H138.016C137.881 182.406 137.677 182.672 137.406 182.934C137.135 183.196 136.787 183.413 136.362 183.586C135.937 183.759 135.427 183.845 134.834 183.845ZM135.29 182.163C135.869 182.163 136.364 182.048 136.775 181.819C137.191 181.59 137.507 181.291 137.722 180.922C137.941 180.548 138.051 180.149 138.051 179.724V178.336C137.976 178.411 137.831 178.481 137.617 178.546C137.406 178.607 137.166 178.661 136.895 178.707C136.624 178.75 136.36 178.789 136.103 178.827C135.846 178.859 135.631 178.887 135.458 178.911C135.051 178.962 134.68 179.049 134.343 179.17C134.012 179.292 133.745 179.467 133.544 179.696C133.348 179.92 133.25 180.219 133.25 180.593C133.25 181.112 133.442 181.504 133.825 181.77C134.208 182.032 134.696 182.163 135.29 182.163ZM145.034 169.253V183.607H142.938V169.253H145.034ZM152.493 183.824C151.432 183.824 150.519 183.597 149.752 183.144C148.991 182.686 148.402 182.044 147.986 181.217C147.575 180.385 147.369 179.411 147.369 178.294C147.369 177.191 147.575 176.219 147.986 175.378C148.402 174.537 148.981 173.881 149.724 173.409C150.472 172.937 151.346 172.701 152.346 172.701C152.953 172.701 153.542 172.801 154.112 173.002C154.682 173.203 155.194 173.519 155.647 173.948C156.1 174.378 156.458 174.937 156.719 175.624C156.981 176.306 157.112 177.135 157.112 178.112V178.855H148.554V177.285H155.058C155.058 176.733 154.946 176.245 154.722 175.82C154.497 175.39 154.182 175.051 153.775 174.804C153.374 174.556 152.902 174.432 152.36 174.432C151.771 174.432 151.257 174.577 150.818 174.867C150.383 175.152 150.047 175.525 149.808 175.988C149.575 176.446 149.458 176.944 149.458 177.481V178.707C149.458 179.427 149.584 180.039 149.836 180.544C150.093 181.048 150.451 181.434 150.909 181.7C151.367 181.962 151.902 182.093 152.514 182.093C152.911 182.093 153.273 182.037 153.6 181.925C153.927 181.808 154.21 181.635 154.448 181.406C154.687 181.177 154.869 180.894 154.995 180.558L156.979 180.915C156.82 181.499 156.535 182.011 156.123 182.45C155.717 182.885 155.205 183.224 154.588 183.467C153.976 183.705 153.278 183.824 152.493 183.824ZM167.504 175.469L165.605 175.806C165.525 175.563 165.399 175.332 165.226 175.112C165.058 174.892 164.829 174.712 164.539 174.572C164.25 174.432 163.887 174.362 163.453 174.362C162.86 174.362 162.364 174.495 161.967 174.762C161.57 175.023 161.371 175.362 161.371 175.778C161.371 176.138 161.504 176.427 161.771 176.647C162.037 176.867 162.467 177.046 163.06 177.187L164.771 177.579C165.761 177.808 166.499 178.161 166.985 178.637C167.471 179.114 167.714 179.733 167.714 180.495C167.714 181.14 167.527 181.714 167.154 182.219C166.784 182.719 166.268 183.111 165.605 183.396C164.946 183.681 164.182 183.824 163.313 183.824C162.107 183.824 161.124 183.567 160.362 183.053C159.6 182.534 159.133 181.798 158.96 180.845L160.986 180.537C161.112 181.065 161.371 181.464 161.764 181.735C162.156 182.002 162.668 182.135 163.299 182.135C163.986 182.135 164.535 181.992 164.946 181.707C165.357 181.418 165.563 181.065 165.563 180.649C165.563 180.313 165.436 180.03 165.184 179.801C164.936 179.572 164.556 179.399 164.042 179.282L162.219 178.883C161.215 178.654 160.472 178.289 159.991 177.789C159.514 177.289 159.276 176.656 159.276 175.89C159.276 175.254 159.453 174.698 159.808 174.222C160.163 173.745 160.654 173.374 161.28 173.107C161.906 172.836 162.624 172.701 163.432 172.701C164.595 172.701 165.511 172.953 166.179 173.458C166.848 173.958 167.289 174.628 167.504 175.469Z" fill="#E8E8E8"/>
<path d="M70.1871 211.547V203.966H71.6954V211.547H70.1871ZM67.1536 208.507V207.005H74.7344V208.507H67.1536ZM81.662 201.992V213.475H79.9238V203.73H79.8565L77.109 205.524V203.865L79.9742 201.992H81.662ZM88.7662 213.666C87.8802 213.662 87.1233 213.429 86.4953 212.965C85.8673 212.502 85.3869 211.827 85.0543 210.941C84.7216 210.055 84.5552 208.988 84.5552 207.739C84.5552 206.495 84.7216 205.431 85.0543 204.549C85.3907 203.667 85.8729 202.994 86.5009 202.53C87.1326 202.067 87.8877 201.835 88.7662 201.835C89.6446 201.835 90.3978 202.069 91.0258 202.536C91.6538 202.999 92.1341 203.672 92.4668 204.554C92.8033 205.433 92.9715 206.495 92.9715 207.739C92.9715 208.992 92.8051 210.061 92.4724 210.947C92.1398 211.829 91.6594 212.503 91.0314 212.971C90.4034 213.434 89.6483 213.666 88.7662 213.666ZM88.7662 212.169C89.5437 212.169 90.1511 211.789 90.5885 211.031C91.0296 210.272 91.2501 209.175 91.2501 207.739C91.2501 206.786 91.1492 205.981 90.9473 205.323C90.7492 204.661 90.4632 204.16 90.0894 203.82C89.7194 203.476 89.2783 203.304 88.7662 203.304C87.9924 203.304 87.3849 203.685 86.9439 204.448C86.5028 205.21 86.2803 206.308 86.2766 207.739C86.2766 208.696 86.3757 209.506 86.5738 210.167C86.7756 210.825 87.0616 211.324 87.4317 211.664C87.8017 212.001 88.2466 212.169 88.7662 212.169ZM100.955 211.322V210.717C100.955 210.283 101.044 209.887 101.224 209.528C101.407 209.165 101.672 208.876 102.02 208.659C102.371 208.438 102.796 208.328 103.293 208.328C103.801 208.328 104.227 208.436 104.571 208.653C104.915 208.87 105.175 209.16 105.351 209.522C105.53 209.885 105.62 210.283 105.62 210.717V211.322C105.62 211.756 105.53 212.154 105.351 212.517C105.171 212.875 104.908 213.165 104.56 213.386C104.216 213.602 103.794 213.711 103.293 213.711C102.788 213.711 102.362 213.602 102.014 213.386C101.667 213.165 101.403 212.875 101.224 212.517C101.044 212.154 100.955 211.756 100.955 211.322ZM102.261 210.717V211.322C102.261 211.644 102.338 211.935 102.491 212.197C102.644 212.459 102.911 212.589 103.293 212.589C103.67 212.589 103.934 212.459 104.083 212.197C104.233 211.935 104.308 211.644 104.308 211.322V210.717C104.308 210.395 104.235 210.104 104.089 209.842C103.947 209.58 103.681 209.449 103.293 209.449C102.919 209.449 102.654 209.58 102.497 209.842C102.34 210.104 102.261 210.395 102.261 210.717ZM95.1793 204.751V204.145C95.1793 203.712 95.269 203.313 95.4484 202.951C95.6316 202.588 95.897 202.299 96.2446 202.082C96.596 201.865 97.0203 201.757 97.5174 201.757C98.0258 201.757 98.4519 201.865 98.7958 202.082C99.1397 202.299 99.3995 202.588 99.5752 202.951C99.7509 203.313 99.8388 203.712 99.8388 204.145V204.751C99.8388 205.184 99.749 205.582 99.5696 205.945C99.3939 206.304 99.1323 206.594 98.7846 206.814C98.4407 207.031 98.0183 207.139 97.5174 207.139C97.009 207.139 96.581 207.031 96.2334 206.814C95.8895 206.594 95.6278 206.304 95.4484 205.945C95.269 205.582 95.1793 205.184 95.1793 204.751ZM96.4913 204.145V204.751C96.4913 205.072 96.5661 205.364 96.7156 205.625C96.8689 205.887 97.1361 206.018 97.5174 206.018C97.8912 206.018 98.1529 205.887 98.3024 205.625C98.4557 205.364 98.5323 205.072 98.5323 204.751V204.145C98.5323 203.824 98.4594 203.532 98.3136 203.27C98.1678 203.009 97.9024 202.878 97.5174 202.878C97.1436 202.878 96.8782 203.009 96.7212 203.27C96.568 203.532 96.4913 203.824 96.4913 204.145ZM95.7119 213.475L103.607 201.992H104.947L97.052 213.475H95.7119ZM116.336 204.863V206.209H111.469V204.863H116.336ZM112.804 213.475V203.865C112.804 203.327 112.921 202.88 113.157 202.525C113.392 202.166 113.705 201.899 114.093 201.723C114.482 201.543 114.905 201.454 115.361 201.454C115.697 201.454 115.985 201.482 116.224 201.538C116.463 201.59 116.641 201.639 116.757 201.684L116.364 203.041C116.286 203.018 116.185 202.992 116.061 202.962C115.938 202.928 115.789 202.912 115.613 202.912C115.205 202.912 114.914 203.013 114.738 203.214C114.566 203.416 114.48 203.708 114.48 204.089V213.475H112.804ZM118.066 213.475V204.863H119.686V206.231H119.776C119.933 205.767 120.21 205.403 120.606 205.138C121.006 204.868 121.458 204.734 121.963 204.734C122.068 204.734 122.191 204.738 122.333 204.745C122.479 204.753 122.593 204.762 122.675 204.773V206.377C122.608 206.358 122.488 206.338 122.316 206.315C122.144 206.289 121.972 206.276 121.8 206.276C121.404 206.276 121.051 206.36 120.741 206.528C120.434 206.693 120.191 206.923 120.012 207.218C119.832 207.509 119.743 207.842 119.743 208.216V213.475H118.066ZM127.445 213.649C126.638 213.649 125.933 213.464 125.331 213.094C124.73 212.724 124.262 212.206 123.93 211.541C123.597 210.876 123.431 210.098 123.431 209.208C123.431 208.315 123.597 207.534 123.93 206.865C124.262 206.195 124.73 205.676 125.331 205.306C125.933 204.936 126.638 204.751 127.445 204.751C128.253 204.751 128.957 204.936 129.559 205.306C130.161 205.676 130.628 206.195 130.961 206.865C131.294 207.534 131.46 208.315 131.46 209.208C131.46 210.098 131.294 210.876 130.961 211.541C130.628 212.206 130.161 212.724 129.559 213.094C128.957 213.464 128.253 213.649 127.445 213.649ZM127.451 212.242C127.974 212.242 128.408 212.103 128.752 211.827C129.096 211.55 129.35 211.182 129.514 210.722C129.682 210.262 129.767 209.756 129.767 209.203C129.767 208.653 129.682 208.149 129.514 207.689C129.35 207.225 129.096 206.853 128.752 206.573C128.408 206.293 127.974 206.152 127.451 206.152C126.924 206.152 126.486 206.293 126.139 206.573C125.795 206.853 125.539 207.225 125.371 207.689C125.206 208.149 125.124 208.653 125.124 209.203C125.124 209.756 125.206 210.262 125.371 210.722C125.539 211.182 125.795 211.55 126.139 211.827C126.486 212.103 126.924 212.242 127.451 212.242ZM133.331 213.475V204.863H134.941V206.265H135.047C135.227 205.79 135.52 205.42 135.927 205.154C136.335 204.885 136.823 204.751 137.391 204.751C137.967 204.751 138.449 204.885 138.837 205.154C139.23 205.424 139.52 205.794 139.707 206.265H139.796C140.002 205.805 140.329 205.439 140.778 205.166C141.226 204.889 141.761 204.751 142.381 204.751C143.162 204.751 143.8 204.996 144.293 205.485C144.79 205.975 145.039 206.713 145.039 207.7V213.475H143.362V207.857C143.362 207.274 143.204 206.851 142.886 206.59C142.568 206.328 142.189 206.197 141.748 206.197C141.202 206.197 140.778 206.366 140.475 206.702C140.172 207.035 140.021 207.463 140.021 207.986V213.475H138.35V207.751C138.35 207.283 138.204 206.908 137.912 206.623C137.621 206.339 137.241 206.197 136.774 206.197C136.456 206.197 136.163 206.281 135.894 206.45C135.628 206.614 135.413 206.844 135.249 207.139C135.088 207.435 135.008 207.777 135.008 208.165V213.475H133.331ZM152.524 216.705C152.274 216.705 152.046 216.684 151.84 216.643C151.635 216.606 151.481 216.565 151.381 216.52L151.784 215.146C152.091 215.228 152.364 215.264 152.603 215.253C152.842 215.242 153.053 215.152 153.236 214.984C153.423 214.815 153.588 214.541 153.73 214.159L153.937 213.587L150.786 204.863H152.58L154.762 211.547H154.851L157.032 204.863H158.832L155.283 214.625C155.119 215.073 154.909 215.453 154.655 215.763C154.401 216.077 154.098 216.313 153.747 216.47C153.395 216.627 152.988 216.705 152.524 216.705ZM163.827 213.649C162.978 213.649 162.248 213.468 161.634 213.105C161.025 212.739 160.554 212.225 160.222 211.563C159.893 210.898 159.728 210.119 159.728 209.225C159.728 208.343 159.893 207.565 160.222 206.893C160.554 206.22 161.018 205.695 161.612 205.317C162.21 204.939 162.909 204.751 163.709 204.751C164.195 204.751 164.666 204.831 165.122 204.992C165.578 205.153 165.987 205.405 166.35 205.749C166.713 206.093 166.999 206.539 167.208 207.089C167.417 207.635 167.522 208.298 167.522 209.079V209.674H160.676V208.418H165.879C165.879 207.977 165.789 207.586 165.61 207.246C165.43 206.902 165.178 206.631 164.853 206.433C164.531 206.235 164.154 206.136 163.72 206.136C163.249 206.136 162.838 206.252 162.487 206.483C162.139 206.711 161.87 207.01 161.679 207.38C161.492 207.747 161.399 208.145 161.399 208.575V209.556C161.399 210.132 161.5 210.621 161.702 211.025C161.907 211.429 162.193 211.737 162.56 211.95C162.926 212.16 163.354 212.264 163.844 212.264C164.161 212.264 164.451 212.219 164.713 212.13C164.974 212.036 165.201 211.898 165.391 211.715C165.582 211.532 165.728 211.305 165.829 211.036L167.415 211.322C167.288 211.789 167.06 212.199 166.731 212.55C166.406 212.898 165.997 213.169 165.503 213.363C165.014 213.554 164.455 213.649 163.827 213.649ZM175.836 206.966L174.316 207.235C174.253 207.04 174.152 206.855 174.014 206.68C173.879 206.504 173.696 206.36 173.464 206.248C173.232 206.136 172.943 206.08 172.595 206.08C172.12 206.08 171.724 206.186 171.406 206.399C171.089 206.609 170.93 206.88 170.93 207.212C170.93 207.5 171.036 207.732 171.249 207.908C171.462 208.083 171.806 208.227 172.281 208.339L173.649 208.653C174.442 208.836 175.032 209.119 175.421 209.5C175.81 209.881 176.004 210.376 176.004 210.986C176.004 211.502 175.855 211.961 175.555 212.365C175.26 212.765 174.847 213.079 174.316 213.307C173.789 213.535 173.178 213.649 172.483 213.649C171.518 213.649 170.732 213.444 170.122 213.032C169.513 212.617 169.139 212.029 169.001 211.266L170.621 211.019C170.722 211.442 170.93 211.761 171.244 211.978C171.558 212.191 171.967 212.298 172.472 212.298C173.021 212.298 173.46 212.184 173.789 211.956C174.118 211.724 174.283 211.442 174.283 211.109C174.283 210.84 174.182 210.614 173.98 210.431C173.782 210.248 173.477 210.109 173.066 210.016L171.608 209.696C170.804 209.513 170.21 209.221 169.825 208.821C169.444 208.421 169.253 207.915 169.253 207.302C169.253 206.794 169.395 206.349 169.679 205.967C169.963 205.586 170.356 205.289 170.857 205.076C171.358 204.859 171.931 204.751 172.578 204.751C173.509 204.751 174.242 204.953 174.776 205.356C175.311 205.756 175.664 206.293 175.836 206.966ZM181.868 204.863V206.209H177.163V204.863H181.868ZM178.425 202.799H180.101V210.947C180.101 211.272 180.15 211.517 180.247 211.681C180.344 211.842 180.47 211.952 180.623 212.012C180.78 212.068 180.95 212.096 181.133 212.096C181.268 212.096 181.385 212.087 181.486 212.068C181.587 212.049 181.666 212.034 181.722 212.023L182.025 213.408C181.927 213.445 181.789 213.483 181.61 213.52C181.43 213.561 181.206 213.584 180.937 213.587C180.496 213.595 180.085 213.516 179.703 213.352C179.322 213.188 179.014 212.933 178.778 212.589C178.543 212.246 178.425 211.814 178.425 211.294V202.799ZM187.342 213.649C186.493 213.649 185.762 213.468 185.149 213.105C184.54 212.739 184.069 212.225 183.736 211.563C183.407 210.898 183.243 210.119 183.243 209.225C183.243 208.343 183.407 207.565 183.736 206.893C184.069 206.22 184.532 205.695 185.127 205.317C185.725 204.939 186.424 204.751 187.224 204.751C187.71 204.751 188.181 204.831 188.637 204.992C189.093 205.153 189.502 205.405 189.865 205.749C190.227 206.093 190.513 206.539 190.723 207.089C190.932 207.635 191.037 208.298 191.037 209.079V209.674H184.19V208.418H189.394C189.394 207.977 189.304 207.586 189.125 207.246C188.945 206.902 188.693 206.631 188.368 206.433C188.046 206.235 187.669 206.136 187.235 206.136C186.764 206.136 186.353 206.252 186.002 206.483C185.654 206.711 185.385 207.01 185.194 207.38C185.007 207.747 184.914 208.145 184.914 208.575V209.556C184.914 210.132 185.015 210.621 185.217 211.025C185.422 211.429 185.708 211.737 186.074 211.95C186.441 212.16 186.869 212.264 187.358 212.264C187.676 212.264 187.966 212.219 188.228 212.13C188.489 212.036 188.715 211.898 188.906 211.715C189.097 211.532 189.242 211.305 189.343 211.036L190.93 211.322C190.803 211.789 190.575 212.199 190.246 212.55C189.921 212.898 189.512 213.169 189.018 213.363C188.528 213.554 187.97 213.649 187.342 213.649ZM192.897 213.475V204.863H194.517V206.231H194.607C194.764 205.767 195.041 205.403 195.437 205.138C195.837 204.868 196.289 204.734 196.794 204.734C196.898 204.734 197.022 204.738 197.164 204.745C197.31 204.753 197.424 204.762 197.506 204.773V206.377C197.439 206.358 197.319 206.338 197.147 206.315C196.975 206.289 196.803 206.276 196.631 206.276C196.235 206.276 195.882 206.36 195.571 206.528C195.265 206.693 195.022 206.923 194.842 207.218C194.663 207.509 194.573 207.842 194.573 208.216V213.475H192.897ZM201.872 213.644C201.177 213.644 200.557 213.466 200.011 213.111C199.469 212.752 199.043 212.242 198.732 211.58C198.426 210.915 198.273 210.117 198.273 209.186C198.273 208.255 198.428 207.459 198.738 206.797C199.052 206.136 199.482 205.629 200.028 205.278C200.573 204.926 201.192 204.751 201.884 204.751C202.418 204.751 202.848 204.84 203.173 205.02C203.502 205.196 203.756 205.401 203.936 205.637C204.119 205.872 204.261 206.08 204.362 206.259H204.463V201.992H206.139V213.475H204.502V212.135H204.362C204.261 212.318 204.115 212.528 203.925 212.763C203.738 212.999 203.48 213.204 203.151 213.38C202.822 213.556 202.396 213.644 201.872 213.644ZM202.242 212.214C202.725 212.214 203.132 212.087 203.465 211.832C203.801 211.575 204.055 211.218 204.227 210.762C204.403 210.305 204.491 209.775 204.491 209.169C204.491 208.571 204.405 208.048 204.233 207.599C204.061 207.151 203.809 206.801 203.476 206.551C203.143 206.3 202.732 206.175 202.242 206.175C201.738 206.175 201.317 206.306 200.981 206.567C200.644 206.829 200.39 207.186 200.218 207.638C200.05 208.091 199.966 208.601 199.966 209.169C199.966 209.745 200.052 210.262 200.224 210.722C200.396 211.182 200.65 211.547 200.986 211.816C201.327 212.081 201.745 212.214 202.242 212.214ZM211.039 213.666C210.493 213.666 209.999 213.565 209.558 213.363C209.117 213.158 208.768 212.86 208.51 212.472C208.256 212.083 208.128 211.606 208.128 211.042C208.128 210.556 208.222 210.156 208.409 209.842C208.596 209.528 208.848 209.279 209.166 209.096C209.484 208.913 209.839 208.775 210.231 208.681C210.624 208.588 211.024 208.517 211.431 208.468C211.947 208.408 212.366 208.36 212.687 208.322C213.009 208.281 213.242 208.216 213.388 208.126C213.534 208.036 213.607 207.891 213.607 207.689V207.65C213.607 207.16 213.468 206.78 213.192 206.511C212.919 206.242 212.511 206.108 211.969 206.108C211.405 206.108 210.96 206.233 210.635 206.483C210.313 206.73 210.091 207.005 209.968 207.308L208.392 206.949C208.579 206.425 208.852 206.003 209.211 205.681C209.573 205.356 209.99 205.121 210.461 204.975C210.932 204.825 211.427 204.751 211.947 204.751C212.291 204.751 212.655 204.792 213.04 204.874C213.429 204.953 213.792 205.098 214.128 205.311C214.468 205.524 214.747 205.829 214.964 206.225C215.18 206.618 215.289 207.128 215.289 207.756V213.475H213.651V212.298H213.584C213.476 212.515 213.313 212.728 213.096 212.937C212.88 213.146 212.601 213.32 212.261 213.459C211.921 213.597 211.513 213.666 211.039 213.666ZM211.403 212.32C211.867 212.32 212.263 212.229 212.592 212.046C212.924 211.862 213.177 211.623 213.349 211.328C213.524 211.029 213.612 210.709 213.612 210.369V209.259C213.552 209.319 213.437 209.375 213.265 209.427C213.096 209.476 212.904 209.519 212.687 209.556C212.47 209.59 212.259 209.621 212.053 209.651C211.848 209.677 211.676 209.7 211.538 209.719C211.212 209.76 210.915 209.829 210.646 209.926C210.381 210.023 210.168 210.163 210.007 210.347C209.85 210.526 209.771 210.765 209.771 211.064C209.771 211.479 209.925 211.793 210.231 212.006C210.538 212.216 210.928 212.32 211.403 212.32ZM218.273 216.705C218.023 216.705 217.795 216.684 217.589 216.643C217.383 216.606 217.23 216.565 217.129 216.52L217.533 215.146C217.839 215.228 218.112 215.264 218.352 215.253C218.591 215.242 218.802 215.152 218.985 214.984C219.172 214.815 219.337 214.541 219.479 214.159L219.686 213.587L216.535 204.863H218.329L220.51 211.547H220.6L222.781 204.863H224.581L221.032 214.625C220.867 215.073 220.658 215.453 220.404 215.763C220.15 216.077 219.847 216.313 219.495 216.47C219.144 216.627 218.737 216.705 218.273 216.705Z" fill="#E2FD70"/>
<rect x="267.264" y="24" width="205.264" height="211.185" rx="19.737" fill="#131416"/>
<g style="mix-blend-mode:darken">
<rect x="294.896" y="45.7104" width="51.3161" height="51.3161" fill="#D9D9D9"/>
</g>
<path d="M330.416 53.0007H335.875C336.46 53.0007 337.021 53.2354 337.435 53.6531C337.848 54.0708 338.081 54.6373 338.081 55.228V91.9781C338.081 92.5688 337.848 93.1353 337.435 93.553C337.021 93.9707 336.46 94.2053 335.875 94.2053H304.997C304.412 94.2053 303.851 93.9707 303.437 93.553C303.023 93.1353 302.791 92.5688 302.791 91.9781V55.228C302.791 54.6373 303.023 54.0708 303.437 53.6531C303.851 53.2354 304.412 53.0007 304.997 53.0007H312.716V56.3416H328.155V53.0007H330.416Z" stroke="#E2FD70" stroke-width="2.96054" stroke-linejoin="round"/>
<path d="M323.746 66.3635L314.923 75.2737H325.956L317.129 84.1828M312.718 49.6589H328.157V56.3408H312.718V49.6589Z" stroke="#E2FD70" stroke-width="2.96054" stroke-linecap="round" stroke-linejoin="round"/>
<path d="M304.294 150.005C302.893 150.005 301.638 149.742 300.531 149.217C299.423 148.684 298.544 147.955 297.892 147.03C297.247 146.105 296.904 145.047 296.861 143.855H300.646C300.716 144.738 301.098 145.46 301.792 146.021C302.486 146.574 303.32 146.851 304.294 146.851C305.058 146.851 305.738 146.676 306.334 146.326C306.93 145.975 307.399 145.488 307.743 144.864C308.086 144.241 308.254 143.529 308.247 142.73C308.254 141.917 308.083 141.195 307.732 140.564C307.382 139.934 306.902 139.439 306.292 139.082C305.682 138.718 304.981 138.535 304.189 138.535C303.544 138.528 302.91 138.647 302.286 138.893C301.663 139.138 301.168 139.46 300.804 139.86L297.282 139.282L298.407 128.18H310.897V131.439H301.635L301.014 137.148H301.14C301.54 136.678 302.104 136.289 302.833 135.981C303.562 135.665 304.361 135.507 305.23 135.507C306.534 135.507 307.697 135.816 308.72 136.433C309.744 137.042 310.55 137.883 311.139 138.956C311.727 140.028 312.022 141.255 312.022 142.635C312.022 144.058 311.692 145.327 311.033 146.441C310.382 147.549 309.474 148.421 308.31 149.059C307.154 149.69 305.815 150.005 304.294 150.005ZM323.502 150.121C321.771 150.121 320.285 149.683 319.045 148.807C317.811 147.924 316.861 146.652 316.195 144.99C315.537 143.322 315.207 141.314 315.207 138.966C315.214 136.618 315.547 134.621 316.206 132.974C316.872 131.32 317.821 130.058 319.055 129.189C320.296 128.32 321.778 127.885 323.502 127.885C325.226 127.885 326.709 128.32 327.949 129.189C329.19 130.058 330.14 131.32 330.798 132.974C331.464 134.628 331.797 136.625 331.797 138.966C331.797 141.321 331.464 143.333 330.798 145.001C330.14 146.662 329.19 147.931 327.949 148.807C326.716 149.683 325.233 150.121 323.502 150.121ZM323.502 146.83C324.848 146.83 325.91 146.168 326.688 144.843C327.473 143.512 327.865 141.553 327.865 138.966C327.865 137.256 327.686 135.819 327.329 134.656C326.972 133.492 326.467 132.616 325.815 132.028C325.163 131.432 324.392 131.134 323.502 131.134C322.163 131.134 321.105 131.8 320.327 133.131C319.549 134.456 319.157 136.401 319.15 138.966C319.143 140.684 319.314 142.127 319.665 143.298C320.022 144.468 320.527 145.351 321.179 145.947C321.831 146.536 322.605 146.83 323.502 146.83ZM343.249 150.121C341.518 150.121 340.032 149.683 338.791 148.807C337.558 147.924 336.608 146.652 335.942 144.99C335.283 143.322 334.954 141.314 334.954 138.966C334.961 136.618 335.294 134.621 335.953 132.974C336.618 131.32 337.568 130.058 338.802 129.189C340.042 128.32 341.525 127.885 343.249 127.885C344.973 127.885 346.455 128.32 347.696 129.189C348.936 130.058 349.886 131.32 350.545 132.974C351.211 134.628 351.544 136.625 351.544 138.966C351.544 141.321 351.211 143.333 350.545 145.001C349.886 146.662 348.936 147.931 347.696 148.807C346.462 149.683 344.98 150.121 343.249 150.121ZM343.249 146.83C344.594 146.83 345.656 146.168 346.434 144.843C347.219 143.512 347.612 141.553 347.612 138.966C347.612 137.256 347.433 135.819 347.076 134.656C346.718 133.492 346.214 132.616 345.562 132.028C344.91 131.432 344.139 131.134 343.249 131.134C341.91 131.134 340.852 131.8 340.074 133.131C339.296 134.456 338.903 136.401 338.896 138.966C338.889 140.684 339.061 142.127 339.411 143.298C339.769 144.468 340.274 145.351 340.925 145.947C341.577 146.536 342.352 146.83 343.249 146.83Z" fill="white"/>
<path d="M295.765 173.09V171.225H306.874V173.09H302.395V185.579H300.236V173.09H295.765ZM312.134 185.797C311.125 185.797 310.244 185.565 309.491 185.103C308.739 184.64 308.155 183.993 307.739 183.161C307.323 182.33 307.115 181.358 307.115 180.246C307.115 179.129 307.323 178.152 307.739 177.316C308.155 176.48 308.739 175.83 309.491 175.367C310.244 174.905 311.125 174.674 312.134 174.674C313.143 174.674 314.024 174.905 314.776 175.367C315.528 175.83 316.113 176.48 316.528 177.316C316.944 178.152 317.152 179.129 317.152 180.246C317.152 181.358 316.944 182.33 316.528 183.161C316.113 183.993 315.528 184.64 314.776 185.103C314.024 185.565 313.143 185.797 312.134 185.797ZM312.141 184.037C312.795 184.037 313.337 183.865 313.767 183.519C314.197 183.173 314.514 182.713 314.72 182.138C314.93 181.563 315.035 180.93 315.035 180.239C315.035 179.552 314.93 178.921 314.72 178.346C314.514 177.767 314.197 177.302 313.767 176.951C313.337 176.601 312.795 176.426 312.141 176.426C311.482 176.426 310.935 176.601 310.501 176.951C310.071 177.302 309.751 177.767 309.541 178.346C309.335 178.921 309.232 179.552 309.232 180.239C309.232 180.93 309.335 181.563 309.541 182.138C309.751 182.713 310.071 183.173 310.501 183.519C310.935 183.865 311.482 184.037 312.141 184.037ZM324.517 174.814V176.496H318.636V174.814H324.517ZM320.213 172.234H322.309V182.418C322.309 182.825 322.37 183.131 322.491 183.337C322.613 183.537 322.769 183.675 322.961 183.75C323.157 183.82 323.37 183.855 323.599 183.855C323.767 183.855 323.914 183.843 324.04 183.82C324.166 183.797 324.264 183.778 324.334 183.764L324.713 185.495C324.591 185.542 324.419 185.589 324.194 185.635C323.97 185.687 323.69 185.715 323.353 185.72C322.802 185.729 322.288 185.631 321.811 185.425C321.335 185.22 320.949 184.902 320.655 184.472C320.36 184.042 320.213 183.502 320.213 182.853V172.234ZM329.968 185.818C329.286 185.818 328.669 185.691 328.118 185.439C327.566 185.182 327.129 184.811 326.807 184.325C326.489 183.839 326.33 183.243 326.33 182.537C326.33 181.93 326.447 181.43 326.681 181.038C326.914 180.645 327.23 180.334 327.627 180.105C328.024 179.876 328.468 179.704 328.959 179.587C329.449 179.47 329.949 179.381 330.458 179.32C331.103 179.246 331.627 179.185 332.028 179.138C332.43 179.087 332.722 179.005 332.905 178.893C333.087 178.781 333.178 178.599 333.178 178.346V178.297C333.178 177.685 333.005 177.211 332.659 176.874C332.318 176.538 331.809 176.37 331.131 176.37C330.426 176.37 329.87 176.526 329.463 176.839C329.061 177.148 328.783 177.491 328.629 177.87L326.66 177.421C326.893 176.767 327.234 176.239 327.683 175.837C328.136 175.431 328.657 175.136 329.246 174.954C329.835 174.767 330.454 174.674 331.103 174.674C331.533 174.674 331.989 174.725 332.47 174.828C332.956 174.926 333.409 175.108 333.83 175.374C334.255 175.641 334.603 176.022 334.874 176.517C335.145 177.008 335.281 177.645 335.281 178.43V185.579H333.234V184.107H333.15C333.014 184.378 332.811 184.645 332.54 184.906C332.269 185.168 331.921 185.385 331.496 185.558C331.071 185.731 330.561 185.818 329.968 185.818ZM330.423 184.136C331.003 184.136 331.498 184.021 331.909 183.792C332.325 183.563 332.641 183.264 332.856 182.895C333.075 182.521 333.185 182.122 333.185 181.696V180.309C333.11 180.383 332.965 180.454 332.75 180.519C332.54 180.58 332.299 180.633 332.028 180.68C331.757 180.722 331.493 180.762 331.236 180.799C330.979 180.832 330.765 180.86 330.592 180.883C330.185 180.935 329.814 181.021 329.477 181.143C329.145 181.264 328.879 181.439 328.678 181.668C328.482 181.893 328.384 182.192 328.384 182.566C328.384 183.084 328.575 183.477 328.959 183.743C329.342 184.005 329.83 184.136 330.423 184.136ZM340.168 171.225V185.579H338.072V171.225H340.168ZM360.847 178.402C360.847 179.935 360.567 181.253 360.006 182.355C359.445 183.453 358.677 184.299 357.7 184.892C356.728 185.481 355.623 185.776 354.385 185.776C353.142 185.776 352.032 185.481 351.056 184.892C350.084 184.299 349.318 183.451 348.757 182.348C348.196 181.246 347.916 179.93 347.916 178.402C347.916 176.87 348.196 175.554 348.757 174.456C349.318 173.354 350.084 172.508 351.056 171.919C352.032 171.326 353.142 171.029 354.385 171.029C355.623 171.029 356.728 171.326 357.7 171.919C358.677 172.508 359.445 173.354 360.006 174.456C360.567 175.554 360.847 176.87 360.847 178.402ZM358.702 178.402C358.702 177.234 358.513 176.251 358.135 175.452C357.761 174.648 357.247 174.04 356.593 173.629C355.943 173.213 355.207 173.005 354.385 173.005C353.558 173.005 352.82 173.213 352.17 173.629C351.521 174.04 351.007 174.648 350.628 175.452C350.254 176.251 350.068 177.234 350.068 178.402C350.068 179.57 350.254 180.556 350.628 181.36C351.007 182.159 351.521 182.766 352.17 183.182C352.82 183.594 353.558 183.799 354.385 183.799C355.207 183.799 355.943 183.594 356.593 183.182C357.247 182.766 357.761 182.159 358.135 181.36C358.513 180.556 358.702 179.57 358.702 178.402ZM363.379 185.579V174.814H365.405V176.524H365.517C365.713 175.944 366.059 175.489 366.554 175.157C367.054 174.821 367.619 174.653 368.25 174.653C368.381 174.653 368.535 174.657 368.713 174.667C368.895 174.676 369.038 174.688 369.14 174.702V176.706C369.056 176.683 368.907 176.657 368.692 176.629C368.477 176.596 368.262 176.58 368.047 176.58C367.552 176.58 367.11 176.685 366.722 176.895C366.339 177.101 366.035 177.388 365.811 177.757C365.587 178.122 365.475 178.538 365.475 179.005V185.579H363.379ZM374.599 185.79C373.729 185.79 372.954 185.568 372.272 185.124C371.594 184.675 371.061 184.037 370.674 183.21C370.29 182.379 370.099 181.381 370.099 180.218C370.099 179.054 370.293 178.059 370.681 177.232C371.073 176.405 371.61 175.772 372.293 175.332C372.975 174.893 373.748 174.674 374.613 174.674C375.281 174.674 375.818 174.786 376.225 175.01C376.636 175.23 376.954 175.487 377.178 175.781C377.407 176.075 377.584 176.335 377.71 176.559H377.837V171.225H379.932V185.579H377.886V183.904H377.71C377.584 184.133 377.402 184.395 377.164 184.689C376.93 184.984 376.608 185.241 376.197 185.46C375.785 185.68 375.253 185.79 374.599 185.79ZM375.061 184.002C375.664 184.002 376.173 183.843 376.589 183.526C377.01 183.203 377.327 182.757 377.542 182.187C377.762 181.617 377.872 180.953 377.872 180.197C377.872 179.449 377.764 178.795 377.549 178.234C377.334 177.673 377.019 177.236 376.603 176.923C376.187 176.61 375.673 176.454 375.061 176.454C374.43 176.454 373.905 176.617 373.484 176.944C373.064 177.272 372.746 177.718 372.531 178.283C372.321 178.849 372.216 179.486 372.216 180.197C372.216 180.916 372.323 181.563 372.538 182.138C372.753 182.713 373.071 183.168 373.491 183.505C373.916 183.836 374.44 184.002 375.061 184.002ZM387.563 185.797C386.503 185.797 385.589 185.57 384.823 185.117C384.061 184.659 383.472 184.016 383.056 183.189C382.645 182.358 382.44 181.383 382.44 180.267C382.44 179.164 382.645 178.192 383.056 177.351C383.472 176.51 384.052 175.853 384.795 175.381C385.542 174.91 386.416 174.674 387.416 174.674C388.023 174.674 388.612 174.774 389.182 174.975C389.752 175.176 390.264 175.491 390.717 175.921C391.17 176.351 391.528 176.909 391.79 177.596C392.051 178.278 392.182 179.108 392.182 180.084V180.827H383.624V179.257H390.128C390.128 178.706 390.016 178.218 389.792 177.792C389.568 177.363 389.252 177.024 388.846 176.776C388.444 176.529 387.972 176.405 387.43 176.405C386.841 176.405 386.327 176.55 385.888 176.839C385.454 177.124 385.117 177.498 384.879 177.961C384.645 178.419 384.528 178.916 384.528 179.454V180.68C384.528 181.4 384.655 182.012 384.907 182.516C385.164 183.021 385.521 183.407 385.979 183.673C386.437 183.935 386.972 184.065 387.584 184.065C387.981 184.065 388.344 184.009 388.671 183.897C388.998 183.78 389.28 183.608 389.519 183.379C389.757 183.15 389.939 182.867 390.065 182.53L392.049 182.888C391.89 183.472 391.605 183.984 391.194 184.423C390.787 184.857 390.276 185.196 389.659 185.439C389.047 185.677 388.348 185.797 387.563 185.797ZM394.507 185.579V174.814H396.533V176.524H396.645C396.841 175.944 397.187 175.489 397.682 175.157C398.182 174.821 398.748 174.653 399.378 174.653C399.509 174.653 399.663 174.657 399.841 174.667C400.023 174.676 400.166 174.688 400.268 174.702V176.706C400.184 176.683 400.035 176.657 399.82 176.629C399.605 176.596 399.39 176.58 399.175 176.58C398.68 176.58 398.238 176.685 397.85 176.895C397.467 177.101 397.164 177.388 396.939 177.757C396.715 178.122 396.603 178.538 396.603 179.005V185.579H394.507Z" fill="#E8E8E8"/>
<path d="M299.398 213.519V205.938H300.906V213.519H299.398ZM296.365 210.48V208.977H303.945V210.48H296.365ZM310.396 215.605C309.593 215.605 308.882 215.467 308.266 215.19C307.653 214.913 307.172 214.532 306.825 214.046C306.477 213.56 306.305 213.007 306.309 212.387C306.305 211.901 306.404 211.454 306.606 211.046C306.812 210.635 307.09 210.293 307.441 210.02C307.793 209.744 308.185 209.568 308.619 209.493V209.426C308.047 209.288 307.589 208.981 307.245 208.506C306.901 208.032 306.731 207.486 306.735 206.869C306.731 206.282 306.886 205.759 307.2 205.299C307.518 204.836 307.953 204.471 308.507 204.206C309.06 203.94 309.69 203.808 310.396 203.808C311.095 203.808 311.72 203.942 312.269 204.211C312.822 204.477 313.258 204.841 313.576 205.305C313.893 205.765 314.054 206.286 314.058 206.869C314.054 207.486 313.878 208.032 313.531 208.506C313.183 208.981 312.731 209.288 312.174 209.426V209.493C312.604 209.568 312.991 209.744 313.334 210.02C313.682 210.293 313.959 210.635 314.164 211.046C314.374 211.454 314.48 211.901 314.484 212.387C314.48 213.007 314.304 213.56 313.957 214.046C313.609 214.532 313.127 214.913 312.51 215.19C311.897 215.467 311.193 215.605 310.396 215.605ZM310.396 214.186C310.871 214.186 311.282 214.108 311.63 213.951C311.978 213.79 312.247 213.568 312.437 213.284C312.628 212.996 312.725 212.659 312.729 212.274C312.725 211.874 312.62 211.521 312.415 211.215C312.213 210.908 311.938 210.667 311.591 210.491C311.243 210.316 310.845 210.228 310.396 210.228C309.944 210.228 309.542 210.316 309.191 210.491C308.839 210.667 308.563 210.908 308.361 211.215C308.159 211.521 308.06 211.874 308.064 212.274C308.06 212.659 308.152 212.996 308.339 213.284C308.529 213.568 308.8 213.79 309.152 213.951C309.503 214.108 309.918 214.186 310.396 214.186ZM310.396 208.843C310.778 208.843 311.116 208.766 311.411 208.613C311.706 208.46 311.938 208.247 312.106 207.974C312.278 207.701 312.366 207.381 312.37 207.015C312.366 206.656 312.28 206.342 312.112 206.073C311.948 205.804 311.718 205.596 311.422 205.451C311.127 205.301 310.785 205.226 310.396 205.226C310 205.226 309.652 205.301 309.353 205.451C309.058 205.596 308.828 205.804 308.664 206.073C308.499 206.342 308.419 206.656 308.423 207.015C308.419 207.381 308.501 207.701 308.669 207.974C308.838 208.247 309.069 208.46 309.365 208.613C309.664 208.766 310.008 208.843 310.396 208.843ZM322.487 213.295V212.689C322.487 212.256 322.576 211.859 322.756 211.501C322.939 211.138 323.204 210.848 323.552 210.632C323.903 210.411 324.328 210.301 324.825 210.301C325.333 210.301 325.759 210.409 326.103 210.626C326.447 210.843 326.707 211.132 326.883 211.495C327.062 211.858 327.152 212.256 327.152 212.689V213.295C327.152 213.728 327.062 214.127 326.883 214.489C326.703 214.848 326.44 215.138 326.092 215.358C325.748 215.575 325.326 215.683 324.825 215.683C324.32 215.683 323.894 215.575 323.546 215.358C323.199 215.138 322.935 214.848 322.756 214.489C322.576 214.127 322.487 213.728 322.487 213.295ZM323.793 212.689V213.295C323.793 213.616 323.87 213.908 324.023 214.17C324.176 214.431 324.443 214.562 324.825 214.562C325.202 214.562 325.466 214.431 325.615 214.17C325.765 213.908 325.84 213.616 325.84 213.295V212.689C325.84 212.368 325.767 212.076 325.621 211.815C325.479 211.553 325.214 211.422 324.825 211.422C324.451 211.422 324.186 211.553 324.029 211.815C323.872 212.076 323.793 212.368 323.793 212.689ZM316.711 206.723V206.118C316.711 205.684 316.801 205.286 316.98 204.923C317.164 204.561 317.429 204.271 317.777 204.054C318.128 203.838 318.552 203.729 319.049 203.729C319.558 203.729 319.984 203.838 320.328 204.054C320.672 204.271 320.932 204.561 321.107 204.923C321.283 205.286 321.371 205.684 321.371 206.118V206.723C321.371 207.157 321.281 207.555 321.102 207.918C320.926 208.277 320.664 208.566 320.317 208.787C319.973 209.004 319.55 209.112 319.049 209.112C318.541 209.112 318.113 209.004 317.765 208.787C317.422 208.566 317.16 208.277 316.98 207.918C316.801 207.555 316.711 207.157 316.711 206.723ZM318.023 206.118V206.723C318.023 207.045 318.098 207.336 318.248 207.598C318.401 207.86 318.668 207.991 319.049 207.991C319.423 207.991 319.685 207.86 319.834 207.598C319.988 207.336 320.064 207.045 320.064 206.723V206.118C320.064 205.796 319.991 205.505 319.846 205.243C319.7 204.981 319.434 204.851 319.049 204.851C318.676 204.851 318.41 204.981 318.253 205.243C318.1 205.505 318.023 205.796 318.023 206.118ZM317.244 215.448L325.139 203.965H326.479L318.584 215.448H317.244ZM337.868 206.836V208.181H333.001V206.836H337.868ZM334.336 215.448V205.837C334.336 205.299 334.454 204.852 334.689 204.497C334.925 204.138 335.237 203.871 335.625 203.696C336.014 203.516 336.437 203.426 336.893 203.426C337.229 203.426 337.517 203.454 337.756 203.511C337.995 203.563 338.173 203.611 338.289 203.656L337.896 205.013C337.818 204.991 337.717 204.965 337.593 204.935C337.47 204.901 337.321 204.884 337.145 204.884C336.737 204.884 336.446 204.985 336.27 205.187C336.098 205.389 336.012 205.68 336.012 206.062V215.448H334.336ZM339.598 215.448V206.836H341.218V208.204H341.308C341.465 207.74 341.742 207.376 342.138 207.11C342.538 206.841 342.99 206.707 343.495 206.707C343.6 206.707 343.723 206.71 343.865 206.718C344.011 206.725 344.125 206.735 344.207 206.746V208.349C344.14 208.331 344.02 208.31 343.848 208.288C343.676 208.262 343.504 208.248 343.332 208.248C342.936 208.248 342.583 208.333 342.273 208.501C341.966 208.665 341.723 208.895 341.544 209.19C341.364 209.482 341.275 209.815 341.275 210.189V215.448H339.598ZM348.977 215.622C348.17 215.622 347.465 215.437 346.863 215.067C346.262 214.697 345.794 214.179 345.462 213.514C345.129 212.848 344.963 212.071 344.963 211.181C344.963 210.288 345.129 209.506 345.462 208.837C345.794 208.168 346.262 207.649 346.863 207.278C347.465 206.908 348.17 206.723 348.977 206.723C349.785 206.723 350.489 206.908 351.091 207.278C351.693 207.649 352.16 208.168 352.493 208.837C352.826 209.506 352.992 210.288 352.992 211.181C352.992 212.071 352.826 212.848 352.493 213.514C352.16 214.179 351.693 214.697 351.091 215.067C350.489 215.437 349.785 215.622 348.977 215.622ZM348.983 214.214C349.506 214.214 349.94 214.076 350.284 213.8C350.628 213.523 350.882 213.155 351.046 212.695C351.215 212.235 351.299 211.729 351.299 211.175C351.299 210.626 351.215 210.121 351.046 209.661C350.882 209.198 350.628 208.826 350.284 208.546C349.94 208.265 349.506 208.125 348.983 208.125C348.456 208.125 348.018 208.265 347.671 208.546C347.327 208.826 347.071 209.198 346.903 209.661C346.738 210.121 346.656 210.626 346.656 211.175C346.656 211.729 346.738 212.235 346.903 212.695C347.071 213.155 347.327 213.523 347.671 213.8C348.018 214.076 348.456 214.214 348.983 214.214ZM354.863 215.448V206.836H356.473V208.237H356.579C356.759 207.763 357.052 207.392 357.459 207.127C357.867 206.858 358.355 206.723 358.923 206.723C359.499 206.723 359.981 206.858 360.369 207.127C360.762 207.396 361.052 207.766 361.239 208.237H361.328C361.534 207.777 361.861 207.411 362.31 207.138C362.758 206.862 363.293 206.723 363.913 206.723C364.694 206.723 365.332 206.968 365.825 207.458C366.322 207.948 366.571 208.686 366.571 209.673V215.448H364.894V209.83C364.894 209.247 364.736 208.824 364.418 208.562C364.1 208.301 363.721 208.17 363.28 208.17C362.734 208.17 362.31 208.338 362.007 208.675C361.704 209.007 361.553 209.435 361.553 209.959V215.448H359.882V209.723C359.882 209.256 359.736 208.88 359.444 208.596C359.153 208.312 358.773 208.17 358.306 208.17C357.988 208.17 357.695 208.254 357.426 208.422C357.16 208.587 356.945 208.817 356.781 209.112C356.62 209.407 356.54 209.749 356.54 210.138V215.448H354.863ZM374.056 218.678C373.806 218.678 373.578 218.657 373.372 218.616C373.167 218.579 373.013 218.538 372.913 218.493L373.316 217.119C373.623 217.201 373.896 217.237 374.135 217.225C374.374 217.214 374.585 217.125 374.769 216.956C374.955 216.788 375.12 216.513 375.262 216.132L375.469 215.56L372.318 206.836H374.112L376.294 213.519H376.383L378.565 206.836H380.364L376.815 216.597C376.651 217.046 376.441 217.425 376.187 217.736C375.933 218.05 375.63 218.285 375.279 218.442C374.927 218.599 374.52 218.678 374.056 218.678ZM385.359 215.622C384.51 215.622 383.78 215.441 383.167 215.078C382.557 214.712 382.086 214.198 381.754 213.536C381.425 212.871 381.26 212.091 381.26 211.198C381.26 210.316 381.425 209.538 381.754 208.865C382.086 208.192 382.55 207.667 383.144 207.29C383.742 206.912 384.441 206.723 385.241 206.723C385.727 206.723 386.198 206.804 386.654 206.964C387.11 207.125 387.519 207.378 387.882 207.721C388.245 208.065 388.531 208.512 388.74 209.062C388.949 209.607 389.054 210.271 389.054 211.052V211.646H382.208V210.39H387.411C387.411 209.949 387.321 209.559 387.142 209.219C386.963 208.875 386.71 208.604 386.385 208.405C386.064 208.207 385.686 208.108 385.252 208.108C384.781 208.108 384.37 208.224 384.019 208.456C383.671 208.684 383.402 208.983 383.211 209.353C383.024 209.719 382.931 210.118 382.931 210.547V211.529C382.931 212.104 383.032 212.594 383.234 212.998C383.439 213.401 383.725 213.71 384.092 213.923C384.458 214.132 384.886 214.237 385.376 214.237C385.693 214.237 385.983 214.192 386.245 214.102C386.506 214.009 386.733 213.871 386.923 213.687C387.114 213.504 387.26 213.278 387.361 213.009L388.947 213.295C388.82 213.762 388.592 214.171 388.263 214.523C387.938 214.87 387.529 215.141 387.035 215.336C386.546 215.526 385.987 215.622 385.359 215.622ZM397.368 208.938L395.848 209.207C395.785 209.013 395.684 208.828 395.546 208.652C395.411 208.477 395.228 208.333 394.996 208.22C394.764 208.108 394.475 208.052 394.127 208.052C393.652 208.052 393.256 208.159 392.938 208.372C392.621 208.581 392.462 208.852 392.462 209.185C392.462 209.473 392.568 209.704 392.781 209.88C392.994 210.056 393.338 210.2 393.813 210.312L395.181 210.626C395.974 210.809 396.564 211.091 396.953 211.473C397.342 211.854 397.536 212.349 397.536 212.958C397.536 213.474 397.387 213.934 397.088 214.338C396.792 214.738 396.379 215.052 395.848 215.28C395.321 215.508 394.71 215.622 394.015 215.622C393.05 215.622 392.264 215.416 391.654 215.005C391.045 214.59 390.671 214.001 390.533 213.239L392.153 212.992C392.254 213.414 392.462 213.734 392.776 213.951C393.09 214.164 393.499 214.271 394.004 214.271C394.553 214.271 394.992 214.156 395.321 213.928C395.65 213.697 395.815 213.414 395.815 213.082C395.815 212.813 395.714 212.587 395.512 212.403C395.314 212.22 395.009 212.082 394.598 211.988L393.14 211.669C392.336 211.486 391.742 211.194 391.357 210.794C390.976 210.394 390.785 209.888 390.785 209.275C390.785 208.766 390.927 208.321 391.211 207.94C391.495 207.559 391.888 207.262 392.389 207.049C392.89 206.832 393.463 206.723 394.11 206.723C395.041 206.723 395.774 206.925 396.308 207.329C396.843 207.729 397.196 208.265 397.368 208.938ZM403.4 206.836V208.181H398.695V206.836H403.4ZM399.957 204.772H401.633V212.919C401.633 213.244 401.682 213.489 401.779 213.654C401.876 213.814 402.002 213.925 402.155 213.985C402.312 214.041 402.482 214.069 402.665 214.069C402.8 214.069 402.917 214.059 403.018 214.041C403.119 214.022 403.198 214.007 403.254 213.996L403.557 215.381C403.46 215.418 403.321 215.455 403.142 215.493C402.962 215.534 402.738 215.556 402.469 215.56C402.028 215.568 401.617 215.489 401.235 215.325C400.854 215.16 400.546 214.906 400.31 214.562C400.075 214.218 399.957 213.786 399.957 213.267V204.772ZM408.874 215.622C408.025 215.622 407.294 215.441 406.681 215.078C406.072 214.712 405.601 214.198 405.268 213.536C404.939 212.871 404.775 212.091 404.775 211.198C404.775 210.316 404.939 209.538 405.268 208.865C405.601 208.192 406.064 207.667 406.659 207.29C407.257 206.912 407.956 206.723 408.756 206.723C409.242 206.723 409.713 206.804 410.169 206.964C410.625 207.125 411.034 207.378 411.397 207.721C411.759 208.065 412.045 208.512 412.255 209.062C412.464 209.607 412.569 210.271 412.569 211.052V211.646H405.722V210.39H410.926C410.926 209.949 410.836 209.559 410.657 209.219C410.477 208.875 410.225 208.604 409.9 208.405C409.578 208.207 409.201 208.108 408.767 208.108C408.296 208.108 407.885 208.224 407.534 208.456C407.186 208.684 406.917 208.983 406.726 209.353C406.539 209.719 406.446 210.118 406.446 210.547V211.529C406.446 212.104 406.547 212.594 406.749 212.998C406.954 213.401 407.24 213.71 407.606 213.923C407.973 214.132 408.401 214.237 408.89 214.237C409.208 214.237 409.498 214.192 409.76 214.102C410.021 214.009 410.247 213.871 410.438 213.687C410.629 213.504 410.774 213.278 410.875 213.009L412.462 213.295C412.335 213.762 412.107 214.171 411.778 214.523C411.453 214.87 411.044 215.141 410.55 215.336C410.06 215.526 409.502 215.622 408.874 215.622ZM414.429 215.448V206.836H416.049V208.204H416.139C416.296 207.74 416.573 207.376 416.969 207.11C417.369 206.841 417.821 206.707 418.326 206.707C418.43 206.707 418.554 206.71 418.696 206.718C418.842 206.725 418.956 206.735 419.038 206.746V208.349C418.971 208.331 418.851 208.31 418.679 208.288C418.507 208.262 418.335 208.248 418.163 208.248C417.767 208.248 417.414 208.333 417.103 208.501C416.797 208.665 416.554 208.895 416.375 209.19C416.195 209.482 416.105 209.815 416.105 210.189V215.448H414.429ZM423.404 215.616C422.709 215.616 422.089 215.439 421.543 215.084C421.001 214.725 420.575 214.214 420.264 213.553C419.958 212.887 419.805 212.089 419.805 211.159C419.805 210.228 419.96 209.432 420.27 208.77C420.584 208.108 421.014 207.602 421.56 207.25C422.105 206.899 422.724 206.723 423.416 206.723C423.95 206.723 424.38 206.813 424.705 206.993C425.034 207.168 425.288 207.374 425.468 207.609C425.651 207.845 425.793 208.052 425.894 208.232H425.995V203.965H427.671V215.448H426.034V214.108H425.894C425.793 214.291 425.647 214.5 425.457 214.736C425.27 214.971 425.012 215.177 424.683 215.353C424.354 215.528 423.928 215.616 423.404 215.616ZM423.774 214.186C424.257 214.186 424.664 214.059 424.997 213.805C425.333 213.547 425.587 213.19 425.759 212.734C425.935 212.278 426.023 211.747 426.023 211.142C426.023 210.544 425.937 210.02 425.765 209.572C425.593 209.123 425.341 208.774 425.008 208.523C424.675 208.273 424.264 208.148 423.774 208.148C423.27 208.148 422.849 208.278 422.513 208.54C422.176 208.802 421.922 209.159 421.75 209.611C421.582 210.063 421.498 210.574 421.498 211.142C421.498 211.717 421.584 212.235 421.756 212.695C421.928 213.155 422.182 213.519 422.518 213.788C422.859 214.054 423.277 214.186 423.774 214.186ZM432.571 215.639C432.025 215.639 431.531 215.538 431.09 215.336C430.649 215.13 430.3 214.833 430.042 214.444C429.788 214.056 429.661 213.579 429.661 213.015C429.661 212.529 429.754 212.129 429.941 211.815C430.128 211.501 430.38 211.252 430.698 211.069C431.016 210.886 431.371 210.747 431.763 210.654C432.156 210.56 432.556 210.489 432.963 210.441C433.479 210.381 433.898 210.332 434.219 210.295C434.541 210.254 434.774 210.189 434.92 210.099C435.066 210.009 435.139 209.863 435.139 209.661V209.622C435.139 209.133 435 208.753 434.724 208.484C434.451 208.215 434.043 208.08 433.501 208.08C432.937 208.08 432.492 208.206 432.167 208.456C431.845 208.703 431.623 208.977 431.5 209.28L429.924 208.921C430.111 208.398 430.384 207.976 430.743 207.654C431.105 207.329 431.522 207.093 431.993 206.948C432.464 206.798 432.959 206.723 433.479 206.723C433.823 206.723 434.187 206.764 434.572 206.847C434.961 206.925 435.324 207.071 435.66 207.284C436 207.497 436.279 207.802 436.496 208.198C436.712 208.591 436.821 209.101 436.821 209.729V215.448H435.183V214.271H435.116C435.008 214.487 434.845 214.7 434.628 214.91C434.412 215.119 434.133 215.293 433.793 215.431C433.453 215.569 433.045 215.639 432.571 215.639ZM432.935 214.293C433.399 214.293 433.795 214.201 434.124 214.018C434.456 213.835 434.709 213.596 434.881 213.3C435.056 213.001 435.144 212.682 435.144 212.342V211.231C435.084 211.291 434.969 211.347 434.797 211.4C434.628 211.448 434.436 211.491 434.219 211.529C434.002 211.562 433.791 211.594 433.585 211.624C433.38 211.65 433.208 211.673 433.07 211.691C432.744 211.732 432.447 211.802 432.178 211.899C431.913 211.996 431.7 212.136 431.539 212.319C431.382 212.499 431.303 212.738 431.303 213.037C431.303 213.452 431.457 213.766 431.763 213.979C432.07 214.188 432.46 214.293 432.935 214.293ZM439.805 218.678C439.555 218.678 439.327 218.657 439.121 218.616C438.915 218.579 438.762 218.538 438.661 218.493L439.065 217.119C439.372 217.201 439.644 217.237 439.884 217.225C440.123 217.214 440.334 217.125 440.517 216.956C440.704 216.788 440.869 216.513 441.011 216.132L441.218 215.56L438.067 206.836H439.861L442.042 213.519H442.132L444.313 206.836H446.113L442.564 216.597C442.399 217.046 442.19 217.425 441.936 217.736C441.682 218.05 441.379 218.285 441.027 218.442C440.676 218.599 440.269 218.678 439.805 218.678Z" fill="#E2FD70"/>
<rect x="42" y="255.186" width="205.264" height="211.185" rx="19.737" fill="#131416"/>
<g style="mix-blend-mode:darken">
<rect x="69.6313" y="276.896" width="51.3161" height="51.3161" fill="#D9D9D9"/>
</g>
<path d="M106.734 291.196H113.85C114.28 291.197 114.695 291.357 115.014 291.646C115.333 291.935 115.533 292.332 115.576 292.76L116.636 303.357H113.141L112.272 294.671H106.734V299.883C106.734 300.344 106.551 300.785 106.225 301.111C105.899 301.437 105.457 301.62 104.997 301.62C104.536 301.62 104.094 301.437 103.768 301.111C103.442 300.785 103.259 300.344 103.259 299.883V294.671H89.3612V299.883C89.3612 300.344 89.1782 300.785 88.8524 301.111C88.5266 301.437 88.0847 301.62 87.6239 301.62C87.1632 301.62 86.7213 301.437 86.3955 301.111C86.0697 300.785 85.8867 300.344 85.8867 299.883V294.671H80.3448L77.5652 322.467H96.3102V325.942H75.6438C75.4011 325.942 75.1612 325.89 74.9395 325.792C74.7178 325.693 74.5192 325.549 74.3565 325.369C74.1938 325.189 74.0707 324.977 73.9949 324.747C73.9192 324.516 73.8926 324.272 73.9169 324.031L77.044 292.76C77.087 292.332 77.2875 291.935 77.6065 291.646C77.9255 291.357 78.3404 291.197 78.7708 291.196H85.8867V289.984C85.8867 283.959 90.5286 279.036 96.3102 279.036C102.092 279.036 106.734 283.959 106.734 289.984V291.2V291.196ZM103.259 291.196V289.984C103.259 285.835 100.125 282.51 96.3102 282.51C92.4952 282.51 89.3612 285.835 89.3612 289.984V291.2H103.259V291.196ZM114.194 317.047C114.352 316.875 114.544 316.736 114.757 316.639C114.971 316.543 115.201 316.491 115.436 316.486C115.67 316.481 115.902 316.523 116.12 316.61C116.337 316.698 116.535 316.828 116.7 316.993C116.866 317.159 116.997 317.356 117.084 317.573C117.172 317.79 117.214 318.023 117.21 318.257C117.205 318.491 117.153 318.722 117.057 318.936C116.961 319.149 116.822 319.341 116.65 319.5L109.701 326.449C109.375 326.775 108.933 326.958 108.473 326.958C108.012 326.958 107.57 326.775 107.245 326.449L100.296 319.5C100.13 319.34 99.9972 319.148 99.9062 318.936C99.8152 318.724 99.7672 318.496 99.7652 318.265C99.7632 318.035 99.8072 317.806 99.8945 317.593C99.9819 317.379 100.111 317.185 100.274 317.022C100.437 316.859 100.631 316.73 100.845 316.642C101.058 316.555 101.287 316.511 101.518 316.513C101.748 316.515 101.976 316.563 102.188 316.654C102.4 316.745 102.592 316.878 102.752 317.043L106.734 321.029V308.569C106.734 308.108 106.917 307.666 107.243 307.341C107.568 307.015 108.01 306.832 108.471 306.832C108.932 306.832 109.374 307.015 109.7 307.341C110.025 307.666 110.208 308.108 110.208 308.569V321.029L114.194 317.043V317.047Z" fill="#E2FD70"/>
<rect x="267.264" y="255.186" width="205.264" height="211.185" rx="19.737" fill="#131416"/>
<g style="mix-blend-mode:darken">
<rect x="294.896" y="276.896" width="51.3161" height="51.3161" fill="#D9D9D9"/>
</g>
<path d="M320.249 302.554C326.237 302.554 331.092 297.768 331.092 291.863C331.092 285.959 326.237 281.172 320.249 281.172C314.261 281.172 309.407 285.959 309.407 291.863C309.407 297.768 314.261 302.554 320.249 302.554Z" stroke="#E2FD70" stroke-width="2.96054"/>
</g>
<defs>
<linearGradient id="paint0_linear_77_832" x1="261" y1="142" x2="261" y2="284" gradientUnits="userSpaceOnUse">
<stop stop-color="#1B1B1B"/>
<stop offset="1" stop-color="#1B1B1B" stop-opacity="0"/>
</linearGradient>
</defs>
</svg>
