<svg width="16" height="16" viewBox="0 0 16 16" fill="none" xmlns="http://www.w3.org/2000/svg">
<path d="M9.2955 0.519444C8.85616 0.0801074 8.14384 0.0801074 7.7045 0.519444C7.26517 0.95878 7.26517 1.6711 7.7045 2.11044L9.2955 0.519444ZM14.875 7.68996L15.6705 8.48545C16.1098 8.04612 16.1098 7.3338 15.6705 6.89446L14.875 7.68996ZM7.7045 13.2695C7.26517 13.7089 7.26517 14.4211 7.7045 14.8604C8.14384 15.2998 8.85616 15.2998 9.2955 14.8604L7.7045 13.2695ZM7.7045 2.11044L14.0796 8.48545L15.6705 6.89446L9.2955 0.519444L7.7045 2.11044ZM14.0796 6.89446L7.7045 13.2695L9.2955 14.8604L15.6705 8.48545L14.0796 6.89446Z" fill="#D7DBE0"/>
<path d="M1 7.68994H14.875Z" fill="#D7DBE0"/>
<path d="M1 7.68994H14.875" stroke="#D7DBE0" stroke-width="1.5" stroke-linecap="round"/>
</svg>
