
        <svg xmlns="http://www.w3.org/2000/svg" xmlns:xlink="http://www.w3.org/1999/xlink" version="1.1" width="3171.4285714285716" 
        height="2157.079427629201" viewBox="0 0 3171.4285714285716 2157.079427629201">
			
			<g transform="scale(8.571428571428571) translate(10, 10)">
				<defs id="SvgjsDefs1039"><linearGradient id="SvgjsLinearGradient1048"><stop id="SvgjsStop1049" stop-color="#b98947" offset="0"></stop><stop id="SvgjsStop1050" stop-color="#faf0a1" offset="1"></stop></linearGradient></defs><g id="SvgjsG1040" featureKey="symbolContainer" transform="matrix(1,0,0,1,101,0)" 
				fill="url(#SvgjsLinearGradient1048)"><rect xmlns="http://www.w3.org/2000/svg" width="148" height="149" rx="10" ry="10"></rect></g><g id="SvgjsG1041" featureKey="monogramFeature-0" transform="matrix(2.438126385237555,0,0,2.438126385237555,120.17616273100973,-16.571919030348468)" fill="#000000"><path 
				d="M44.34 56.58 q0.42 0.96 -0.21 1.95 t-1.71 0.99 l-39.96 0 q-0.54 0 -1.02 -0.27 t-0.72 -0.69 q-0.66 -0.96 -0.18 -1.98 l1.86 -4.38 q0.24 -0.6 0.78 -0.96 t1.14 -0.36 l27.96 0 l-9.84 -23.52 l-8.04 19.2 q-0.24 0.6 -0.75 0.93 t-1.17 0.33 l-5.04 0 q-1.14 0 -1.8 -0.96 q-0.24 -0.42 -0.3 -0.96 t0.12 -1.02 l12.18 -28.56 q0.24 -0.6 0.75 -0.96 t1.17 -0.36 l5.76 0 q0.66 0 1.17 0.36 t0.75 0.96 z"></path></g><g id="SvgjsG1042" featureKey="nameFeature-0" transform="matrix(1.1400994863249794,0,0,1.1400994863249794,-0.25682386098282683,157.5990094858846)" fill="#ffffff"><path d="M29.56 37.72 q0.28 0.64 -0.14 1.3 t-1.14 0.66 l-26.64 0 q-0.36 0 -0.68 -0.18 t-0.48 -0.46 q-0.44 -0.64 -0.12 -1.32 l1.24 -2.92 q0.16 -0.4 0.52 -0.64 t0.76 -0.24 l18.64 0 l-6.56 -15.68 l-5.36 12.8 q-0.16 0.4 -0.5 0.62 t-0.78 0.22 l-3.36 0 q-0.76 0 -1.2 -0.64 q-0.16 -0.28 -0.2 -0.64 t0.08 -0.68 l8.12 -19.04 q0.16 -0.4 0.5 -0.64 t0.78 -0.24 l3.84 0 q0.44 0 0.78 0.24 t0.5 0.64 z M44.712 10 q4.72 0 7.62 2.7 t2.9 7.24 t-2.86 7.24 t-7.66 2.7 l-7.56 0 l0 8.08 q0 0.56 -0.42 0.98 t-0.98 0.42 l-3 0 q-0.56 0 -0.98 -0.42 t-0.42 -0.98 l0 -26.56 q0 -0.56 0.42 -0.98 t0.98 -0.42 l11.96 0 z M37.152 15.64 l0 8.64 l7.36 0 q2.6 0 3.76 -1.12 t1.16 -3.22 t-1.16 -3.14 q-1.24 -1.16 -3.76 -1.16 l-7.36 0 z M78.464 10 q0.6 0 1 0.42 t0.4 0.98 l0 2.88 q0 0.56 -0.4 0.98 t-1 0.42 l-15.12 0 l0 6.12 l13.36 0 q0.6 0 1 0.42 t0.4 0.98 l0 2.92 q0 0.56 -0.4 0.98 t-1 0.42 l-13.36 0 l0 6.16 l15.12 0 q0.6 0 1 0.42 t0.4 0.98 l0 2.88 q0 0.56 -0.4 0.98 t-1 0.42 l-19.52 0 q-0.56 0 -0.98 -0.42 t-0.42 -0.98 l0 -26.56 q0 -0.56 0.42 -0.98 t0.98 -0.42 l19.52 0 z M96.976 24.240000000000002 l9.84 12.76 q0.4 0.4 0.4 0.96 t-0.42 0.98 t-0.98 0.42 l-3.8 0 q-0.32 0 -0.64 -0.14 t-0.48 -0.42 l-7.52 -9.92 l-7.48 9.92 q-0.44 0.56 -1.12 0.56 l-3.8 0 q-0.4 0 -0.74 -0.22 t-0.52 -0.56 t-0.14 -0.76 t0.28 -0.7 l9.96 -12.88 l-9.24 -12 q-0.24 -0.28 -0.28 -0.7 t0.14 -0.76 t0.52 -0.56 t0.74 -0.22 l3.8 0 q0.68 0 1.12 0.56 l6.76 8.96 l6.8 -8.96 q0.16 -0.28 0.48 -0.42 t0.64 -0.14 l3.8 0 q0.4 0 0.72 0.22 t0.52 0.56 t0.16 0.76 t-0.32 0.7 z M142.68 10 q0.56 0 0.98 0.42 t0.42 0.98 l0 26.8 q0 0.56 -0.42 0.98 t-0.98 0.42 l-3.04 0 q-0.6 0 -1 -0.42 t-0.4 -0.98 l0 -18.08 l-7.4 9.52 q-0.44 0.52 -1.12 0.52 l0 0 q-0.32 0 -0.64 -0.14 t-0.48 -0.42 l-13.12 -17.36 q-0.24 -0.28 -0.28 -0.7 t0.16 -0.76 t0.52 -0.56 t0.72 -0.22 l3.52 0 q0.68 0 1.12 0.56 l8.48 11.2 l8.28 -11.2 q0.44 -0.56 1.16 -0.56 l3.52 0 z M119.64000000000001 29.4 q0.56 0 0.98 0.4 t0.42 1 l0 7.4 q0 0.56 -0.42 0.98 t-0.98 0.42 l-3.04 0 q-0.56 0 -0.98 -0.42 t-0.42 -0.98 l0 -7.4 q0 -0.6 0.42 -1 t0.98 -0.4 l3.04 0 z M163.51200000000003 10.84 l11.2 26.44 q0.2 0.32 0.2 0.68 q0 0.56 -0.4 0.98 t-1 0.42 l-3.32 0 q-0.44 0 -0.78 -0.22 t-0.5 -0.62 l-2.92 -6.88 l-11.32 0 l-2.88 6.88 q-0.16 0.4 -0.5 0.62 t-0.78 0.22 l-3.32 0 q-0.36 0 -0.68 -0.18 t-0.5 -0.46 t-0.22 -0.62 t0.12 -0.66 l11.28 -26.6 q0.16 -0.4 0.5 -0.62 t0.78 -0.22 l3.76 0 q0.44 0 0.78 0.22 t0.5 0.62 z M160.35200000000003 18.12 l-3.32 7.96 l6.64 0 z M196.86400000000003 10 q0.56 0 0.96 0.42 t0.4 0.98 l0 2.88 q0 0.56 -0.4 0.98 t-0.96 0.42 l-7.88 0 l0 22.28 q0 0.56 -0.42 0.98 t-0.98 0.42 l-3 0 q-0.6 0 -1 -0.42 t-0.4 -0.98 l0 -22.28 l-7.88 0 q-0.56 0 -0.98 -0.42 t-0.42 -0.98 l0 -2.88 q0 -0.56 0.42 -0.98 t0.98 -0.42 l21.56 0 z M209.29600000000002 16.44 q-1.64 0.68 -2.68 1.92 q-2.24 2.48 -2.24 6.64 t2.24 6.68 q2.32 2.6 6.88 2.6 q2.4 0 4.22 -1.22 t2.7 -3.26 q0.16 -0.4 0.5 -0.62 t0.78 -0.22 l3.16 0 q0.32 0 0.64 0.14 t0.48 0.42 q0.44 0.64 0.2 1.28 q-1.48 4.2 -4.88 6.6 q-3.64 2.6 -8.48 2.6 q-6.44 0 -10.48 -4.44 q-3.76 -4.24 -3.76 -10.56 t3.76 -10.56 q4.04 -4.44 10.48 -4.44 q4.84 0 8.48 2.6 q3.36 2.4 4.88 6.6 q0.24 0.68 -0.2 1.28 q-0.16 0.28 -0.48 0.42 t-0.64 0.14 l-3.16 0 q-0.44 0 -0.78 -0.22 t-0.5 -0.62 q-0.88 -2.04 -2.7 -3.26 t-4.22 -1.22 q-2.56 0 -4.2 0.72 z M251.88800000000003 10 q0.56 0 0.96 0.42 t0.4 0.98 l0 26.56 q0 0.56 -0.4 0.98 t-0.96 0.42 l-3.04 0 q-0.56 0 -0.96 -0.42 t-0.4 -0.98 l0 -10.44 l-12.68 0 l0 10.44 q0 0.56 -0.42 0.98 t-0.98 0.42 l-3 0 q-0.56 0 -0.98 -0.42 t-0.42 -0.98 l0 -26.56 q0 -0.56 0.42 -0.98 t0.98 -0.42 l3 0 q0.56 0 0.98 0.42 t0.42 0.98 l0 10.4 l12.68 0 l0 -10.4 q0 -0.56 0.4 -0.98 t0.96 -0.42 l3.04 0 z M261.76000000000005 32.56 q0.56 0 0.98 0.4 t0.42 1 l0 4.16 q0 0.56 -0.42 0.98 t-0.98 0.42 l-3.64 0 q-0.6 0 -1 -0.42 t-0.4 -0.98 l0 -4.16 q0 -0.6 0.4 -1 t1 -0.4 l3.64 0 z M299.58400000000006 37.72 q0.28 0.64 -0.14 1.3 t-1.14 0.66 l-26.64 0 q-0.36 0 -0.68 -0.18 t-0.48 -0.46 q-0.44 -0.64 -0.12 -1.32 l1.24 -2.92 q0.16 -0.4 0.52 -0.64 t0.76 -0.24 l18.64 0 l-6.56 -15.68 l-5.36 12.8 q-0.16 0.4 -0.5 0.62 t-0.78 0.22 l-3.36 0 q-0.76 0 -1.2 -0.64 q-0.16 -0.28 -0.2 -0.64 t0.08 -0.68 l8.12 -19.04 q0.16 -0.4 0.5 -0.64 t0.78 -0.24 l3.84 0 q0.44 0 0.78 0.24 t0.5 0.64 z M305.8160000000001 21.88 q0.6 0 1 0.42 t0.4 1.02 l0 14.96 q0 0.56 -0.4 0.98 t-1 0.42 l-3.04 0 q-0.56 0 -0.98 -0.42 t-0.42 -0.98 l0 -14.96 q0 -0.6 0.42 -1.02 t0.98 -0.42 l3.04 0 z M305.8160000000001 10 q0.6 0 1 0.42 t0.4 0.98 l0 7.4 q0 0.6 -0.4 1.02 t-1 0.42 l-3.04 0 q-0.56 0 -0.98 -0.42 t-0.42 -1.02 l0 -7.4 q0 -0.56 0.42 -0.98 t0.98 -0.42 l3.04 0 z"></path></g>
			</g>
		</svg>
	