
        <svg xmlns="http://www.w3.org/2000/svg" xmlns:xlink="http://www.w3.org/1999/xlink" version="1.1" width="3171.4285714285716" height="2157.079427629201" viewBox="0 0 3171.4285714285716 2157.079427629201">
			
			<g transform="scale(8.571428571428571) translate(10, 10)">
				<defs id="SvgjsDefs1039"><linearGradient id="SvgjsLinearGradient1048"><stop id="SvgjsStop1049" stop-color="#b98947" offset="0"/><stop id="SvgjsStop1050" stop-color="#faf0a1" offset="1"/></linearGradient></defs><g id="SvgjsG1040" featureKey="symbolContainer" transform="matrix(1,0,0,1,101,0)" fill="#000"><rect xmlns="http://www.w3.org/2000/svg" width="148" height="149" rx="10" ry="10"/></g><g id="SvgjsG1041" featureKey="monogramFeature-0" transform="matrix(2.438126385237555,0,0,2.438126385237555,120.17616273100973,-16.571919030348468)" fill="#ffffff"><path d="M44.34 56.58 q0.42 0.96 -0.21 1.95 t-1.71 0.99 l-39.96 0 q-0.54 0 -1.02 -0.27 t-0.72 -0.69 q-0.66 -0.96 -0.18 -1.98 l1.86 -4.38 q0.24 -0.6 0.78 -0.96 t1.14 -0.36 l27.96 0 l-9.84 -23.52 l-8.04 19.2 q-0.24 0.6 -0.75 0.93 t-1.17 0.33 l-5.04 0 q-1.14 0 -1.8 -0.96 q-0.24 -0.42 -0.3 -0.96 t0.12 -1.02 l12.18 -28.56 q0.24 -0.6 0.75 -0.96 t1.17 -0.36 l5.76 0 q0.66 0 1.17 0.36 t0.75 0.96 z"/></g><g id="SvgjsG1042" featureKey="nameFeature-0" transform="matrix(1.1400994863249794,0,0,1.1400994863249794,-0.25682386098282683,157.5990094858846)" fill="#000"><path d="M29.56 37.72 q0.28 0.64 -0.14 1.3 t-1.14 0.66 l-26.64 0 q-0.36 0 -0.68 -0.18 t-0.48 -0.46 q-0.44 -0.64 -0.12 -1.32 l1.24 -2.92 q0.16 -0.4 0.52 -0.64 t0.76 -0.24 l18.64 0 l-6.56 -15.68 l-5.36 12.8 q-0.16 0.4 -0.5 0.62 t-0.78 0.22 l-3.36 0 q-0.76 0 -1.2 -0.64 q-0.16 -0.28 -0.2 -0.64 t0.08 -0.68 l8.12 -19.04 q0.16 -0.4 0.5 -0.64 t0.78 -0.24 l3.84 0 q0.44 0 0.78 0.24 t0.5 0.64 z M44.712 10 q4.72 0 7.62 2.7 t2.9 7.24 t-2.86 7.24 t-7.66 2.7 l-7.56 0 l0 8.08 q0 0.56 -0.42 0.98 t-0.98 0.42 l-3 0 q-0.56 0 -0.98 -0.42 t-0.42 -0.98 l0 -26.56 q0 -0.56 0.42 -0.98 t0.98 -0.42 l11.96 0 z M37.152 15.64 l0 8.64 l7.36 0 q2.6 0 3.76 -1.12 t1.16 -3.22 t-1.16 -3.14 q-1.24 -1.16 -3.76 -1.16 l-7.36 0 z M78.464 10 q0.6 0 1 0.42 t0.4 0.98 l0 2.88 q0 0.56 -0.4 0.98 t-1 0.42 l-15.12 0 l0 6.12 l13.36 0 q0.6 0 1 0.42 t0.4 0.98 l0 2.92 q0 0.56 -0.4 0.98 t-1 0.42 l-13.36 0 l0 6.16 l15.12 0 q0.6 0 1 0.42 t0.4 0.98 l0 2.88 q0 0.56 -0.4 0.98 t-1 0.42 l-19.52 0 q-0.56 0 -0.98 -0.42 t-0.42 -0.98 l0 -26.56 q0 -0.56 0.42 -0.98 t0.98 -0.42 l19.52 0 z M96.976 24.240000000000002 l9.84 12.76 q0.4 0.4 0.4 0.96 t-0.42 0.98 t-0.98 0.42 l-3.8 0 q-0.32 0 -0.64 -0.14 t-0.48 -0.42 l-7.52 -9.92 l-7.48 9.92 q-0.44 0.56 -1.12 0.56 l-3.8 0 q-0.4 0 -0.74 -0.22 t-0.52 -0.56 t-0.14 -0.76 t0.28 -0.7 l9.96 -12.88 l-9.24 -12 q-0.24 -0.28 -0.28 -0.7 t0.14 -0.76 t0.52 -0.56 t0.74 -0.22 l3.8 0 q0.68 0 1.12 0.56 l6.76 8.96 l6.8 -8.96 q0.16 -0.28 0.48 -0.42 t0.64 -0.14 l3.8 0 q0.4 0 0.72 0.22 t0.52 0.56 t0.16 0.76 t-0.32 0.7 z M142.68 10 q0.56 0 0.98 0.42 t0.42 0.98 l0 26.8 q0 0.56 -0.42 0.98 t-0.98 0.42 l-3.04 0 q-0.6 0 -1 -0.42 t-0.4 -0.98 l0 -18.08 l-7.4 9.52 q-0.44 0.52 -1.12 0.52 l0 0 q-0.32 0 -0.64 -0.14 t-0.48 -0.42 l-13.12 -17.36 q-0.24 -0.28 -0.28 -0.7 t0.16 -0.76 t0.52 -0.56 t0.72 -0.22 l3.52 0 q0.68 0 1.12 0.56 l8.48 11.2 l8.28 -11.2 q0.44 -0.56 1.16 -0.56 l3.52 0 z M119.64000000000001 29.4 q0.56 0 0.98 0.4 t0.42 1 l0 7.4 q0 0.56 -0.42 0.98 t-0.98 0.42 l-3.04 0 q-0.56 0 -0.98 -0.42 t-0.42 -0.98 l0 -7.4 q0 -0.6 0.42 -1 t0.98 -0.4 l3.04 0 z M163.51200000000003 10.84 l11.2 26.44 q0.2 0.32 0.2 0.68 q0 0.56 -0.4 0.98 t-1 0.42 l-3.32 0 q-0.44 0 -0.78 -0.22 t-0.5 -0.62 l-2.92 -6.88 l-11.32 0 l-2.88 6.88 q-0.16 0.4 -0.5 0.62 t-0.78 0.22 l-3.32 0 q-0.36 0 -0.68 -0.18 t-0.5 -0.46 t-0.22 -0.62 t0.12 -0.66 l11.28 -26.6 q0.16 -0.4 0.5 -0.62 t0.78 -0.22 l3.76 0 q0.44 0 0.78 0.22 t0.5 0.62 z M160.35200000000003 18.12 l-3.32 7.96 l6.64 0 z M196.86400000000003 10 q0.56 0 0.96 0.42 t0.4 0.98 l0 2.88 q0 0.56 -0.4 0.98 t-0.96 0.42 l-7.88 0 l0 22.28 q0 0.56 -0.42 0.98 t-0.98 0.42 l-3 0 q-0.6 0 -1 -0.42 t-0.4 -0.98 l0 -22.28 l-7.88 0 q-0.56 0 -0.98 -0.42 t-0.42 -0.98 l0 -2.88 q0 -0.56 0.42 -0.98 t0.98 -0.42 l21.56 0 z M209.29600000000002 16.44 q-1.64 0.68 -2.68 1.92 q-2.24 2.48 -2.24 6.64 t2.24 6.68 q2.32 2.6 6.88 2.6 q2.4 0 4.22 -1.22 t2.7 -3.26 q0.16 -0.4 0.5 -0.62 t0.78 -0.22 l3.16 0 q0.32 0 0.64 0.14 t0.48 0.42 q0.44 0.64 0.2 1.28 q-1.48 4.2 -4.88 6.6 q-3.64 2.6 -8.48 2.6 q-6.44 0 -10.48 -4.44 q-3.76 -4.24 -3.76 -10.56 t3.76 -10.56 q4.04 -4.44 10.48 -4.44 q4.84 0 8.48 2.6 q3.36 2.4 4.88 6.6 q0.24 0.68 -0.2 1.28 q-0.16 0.28 -0.48 0.42 t-0.64 0.14 l-3.16 0 q-0.44 0 -0.78 -0.22 t-0.5 -0.62 q-0.88 -2.04 -2.7 -3.26 t-4.22 -1.22 q-2.56 0 -4.2 0.72 z M251.88800000000003 10 q0.56 0 0.96 0.42 t0.4 0.98 l0 26.56 q0 0.56 -0.4 0.98 t-0.96 0.42 l-3.04 0 q-0.56 0 -0.96 -0.42 t-0.4 -0.98 l0 -10.44 l-12.68 0 l0 10.44 q0 0.56 -0.42 0.98 t-0.98 0.42 l-3 0 q-0.56 0 -0.98 -0.42 t-0.42 -0.98 l0 -26.56 q0 -0.56 0.42 -0.98 t0.98 -0.42 l3 0 q0.56 0 0.98 0.42 t0.42 0.98 l0 10.4 l12.68 0 l0 -10.4 q0 -0.56 0.4 -0.98 t0.96 -0.42 l3.04 0 z M261.76000000000005 32.56 q0.56 0 0.98 0.4 t0.42 1 l0 4.16 q0 0.56 -0.42 0.98 t-0.98 0.42 l-3.64 0 q-0.6 0 -1 -0.42 t-0.4 -0.98 l0 -4.16 q0 -0.6 0.4 -1 t1 -0.4 l3.64 0 z M299.58400000000006 37.72 q0.28 0.64 -0.14 1.3 t-1.14 0.66 l-26.64 0 q-0.36 0 -0.68 -0.18 t-0.48 -0.46 q-0.44 -0.64 -0.12 -1.32 l1.24 -2.92 q0.16 -0.4 0.52 -0.64 t0.76 -0.24 l18.64 0 l-6.56 -15.68 l-5.36 12.8 q-0.16 0.4 -0.5 0.62 t-0.78 0.22 l-3.36 0 q-0.76 0 -1.2 -0.64 q-0.16 -0.28 -0.2 -0.64 t0.08 -0.68 l8.12 -19.04 q0.16 -0.4 0.5 -0.64 t0.78 -0.24 l3.84 0 q0.44 0 0.78 0.24 t0.5 0.64 z M305.8160000000001 21.88 q0.6 0 1 0.42 t0.4 1.02 l0 14.96 q0 0.56 -0.4 0.98 t-1 0.42 l-3.04 0 q-0.56 0 -0.98 -0.42 t-0.42 -0.98 l0 -14.96 q0 -0.6 0.42 -1.02 t0.98 -0.42 l3.04 0 z M305.8160000000001 10 q0.6 0 1 0.42 t0.4 0.98 l0 7.4 q0 0.6 -0.4 1.02 t-1 0.42 l-3.04 0 q-0.56 0 -0.98 -0.42 t-0.42 -1.02 l0 -7.4 q0 -0.56 0.42 -0.98 t0.98 -0.42 l3.04 0 z"/></g><g id="SvgjsG1043" featureKey="sloganFeature-0" transform="matrix(0.5971059694031277,0,0,0.5971059694031277,71.58596677684922,219.60052633264004)" fill="#000"><path d="M6.5137 20.19531 c-3.0273 0 -5.3906 -1.4551 -5.8203 -4.1016 l3.0273 -0.69336 c0.19531 1.582 1.3574 2.4023 2.9102 2.4023 c1.1914 0 2.1387 -0.52734 2.1289 -1.7188 c-0.0097656 -1.3281 -1.5723 -1.748 -3.291 -2.2754 c-2.0703 -0.64453 -4.2871 -1.4063 -4.2871 -4.0039 c0 -2.627 2.1484 -4.1113 4.9805 -4.1113 c2.4805 0 4.9805 1.0059 5.5469 3.7109 l-2.832 0.70313 c-0.26367 -1.4063 -1.2109 -2.0215 -2.5391 -2.0215 c-1.1816 0 -2.1875 0.48828 -2.1875 1.6504 c0 1.084 1.3867 1.4453 2.9883 1.9238 c2.1289 0.64453 4.6484 1.4648 4.6484 4.2773 c0 2.998 -2.5098 4.2578 -5.2734 4.2578 z M26.34080078125 20 l-1.0254 -2.9102 l-5.9277 0 l-1.0254 2.9102 l-2.998 0 l5.1953 -14.111 l3.584 0 l5.1953 14.111 l-2.998 0 z M20.24660078125 14.6387 l4.209 0 l-2.0996 -5.9863 z M36.7920328125 17.4121 l4.4238 0 l0 2.5879 l-7.3535 0 l0 -14.111 l2.9297 0 l0 11.523 z M54.04076171875 8.467 l-5.2344 0 l0 3.2031 l4.6387 0 l0 2.5488 l-4.6387 0 l0 3.1934 l5.2344 0 l0 2.5879 l-8.1836 0 l0 -14.111 l8.1836 0 l0 2.5781 z M64.15041875 20.19531 c-3.0273 0 -5.3906 -1.4551 -5.8203 -4.1016 l3.0273 -0.69336 c0.19531 1.582 1.3574 2.4023 2.9102 2.4023 c1.1914 0 2.1387 -0.52734 2.1289 -1.7188 c-0.0097656 -1.3281 -1.5723 -1.748 -3.291 -2.2754 c-2.0703 -0.64453 -4.2871 -1.4063 -4.2871 -4.0039 c0 -2.627 2.1484 -4.1113 4.9805 -4.1113 c2.4805 0 4.9805 1.0059 5.5469 3.7109 l-2.832 0.70313 c-0.26367 -1.4063 -1.2109 -2.0215 -2.5391 -2.0215 c-1.1816 0 -2.1875 0.48828 -2.1875 1.6504 c0 1.084 1.3867 1.4453 2.9883 1.9238 c2.1289 0.64453 4.6484 1.4648 4.6484 4.2773 c0 2.998 -2.5098 4.2578 -5.2734 4.2578 z M88.0029171875 5.888999999999999 c2.7637 0 4.4824 2.0508 4.4824 4.5605 c0 2.5684 -1.7188 4.4922 -4.4824 4.4922 l-2.9395 0 l0 5.0586 l-2.9297 0 l0 -14.111 l5.8691 0 z M87.5146171875 12.4902 c1.4648 0 2.1484 -0.81055 2.1484 -2.0801 c0 -1.2207 -0.68359 -2.0703 -2.1484 -2.0703 l-2.4512 0 l0 4.1504 l2.4512 0 z M104.80220234375 20 l-3.6719 -6.2109 l-0.84961 0 l0 6.2109 l-2.9297 0 l0 -14.111 l5.1172 0 c3.1934 0 4.541 1.8848 4.541 4.2188 c0 1.8945 -1.0742 3.125 -2.9883 3.5352 l4.248 6.3574 l-3.4668 0 z M100.28080234375 8.32 l0 3.3691 l1.7285 0 c1.5625 0 2.1973 -0.66406 2.1973 -1.6797 c0 -1.0059 -0.63477 -1.6895 -2.1973 -1.6895 l-1.7285 0 z M121.00609375 8.467 l-5.2344 0 l0 3.2031 l4.6387 0 l0 2.5488 l-4.6387 0 l0 3.1934 l5.2344 0 l0 2.5879 l-8.1836 0 l0 -14.111 l8.1836 0 l0 2.5781 z M132.67825078125 20.19531 c-4.1504 0 -7.2168 -2.8223 -7.2168 -7.2559 s3.0664 -7.2461 7.2168 -7.2461 c3.1445 0 5.6641 1.6113 6.6699 4.2871 l-2.7344 0.99609 c-0.625 -1.6406 -2.1191 -2.5879 -3.9355 -2.5879 c-2.4316 0 -4.2969 1.6992 -4.2969 4.5508 s1.8652 4.5605 4.2969 4.5605 c1.8164 0 3.3105 -0.95703 3.9355 -2.5977 l2.7344 0.99609 c-1.0059 2.6758 -3.5254 4.2969 -6.6699 4.2969 z M144.1553015625 20 l0 -14.111 l2.9297 0 l0 14.111 l-2.9297 0 z M157.81985234375 20.19531 c-3.0273 0 -5.3906 -1.4551 -5.8203 -4.1016 l3.0273 -0.69336 c0.19531 1.582 1.3574 2.4023 2.9102 2.4023 c1.1914 0 2.1387 -0.52734 2.1289 -1.7188 c-0.0097656 -1.3281 -1.5723 -1.748 -3.291 -2.2754 c-2.0703 -0.64453 -4.2871 -1.4063 -4.2871 -4.0039 c0 -2.627 2.1484 -4.1113 4.9805 -4.1113 c2.4805 0 4.9805 1.0059 5.5469 3.7109 l-2.832 0.70313 c-0.26367 -1.4063 -1.2109 -2.0215 -2.5391 -2.0215 c-1.1816 0 -2.1875 0.48828 -2.1875 1.6504 c0 1.084 1.3867 1.4453 2.9883 1.9238 c2.1289 0.64453 4.6484 1.4648 4.6484 4.2773 c0 2.998 -2.5098 4.2578 -5.2734 4.2578 z M168.203153125 20 l0 -14.111 l2.9297 0 l0 14.111 l-2.9297 0 z M183.43020390625 20.19531 c-4.1504 0 -7.2168 -2.832 -7.2168 -7.2559 c0 -4.4336 3.0664 -7.2461 7.2168 -7.2461 c4.1406 0 7.207 2.8125 7.207 7.2461 c0 4.4238 -3.0664 7.2559 -7.207 7.2559 z M183.43020390625 17.5098 c2.4316 0 4.2969 -1.709 4.2969 -4.5703 c0 -2.8516 -1.8652 -4.5508 -4.2969 -4.5508 s-4.2969 1.6992 -4.2969 4.5508 c0 2.8613 1.8652 4.5703 4.2969 4.5703 z M205.3761328125 5.888999999999999 l2.9199 0 l0 14.111 l-3.3887 0 l-6.25 -10.088 l0 10.088 l-2.9199 0 l0 -14.111 l3.3496 0 l6.2891 10.029 l0 -10.029 z M229.404253125 20 l-3.6719 -6.2109 l-0.84961 0 l0 6.2109 l-2.9297 0 l0 -14.111 l5.1172 0 c3.1934 0 4.541 1.8848 4.541 4.2188 c0 1.8945 -1.0742 3.125 -2.9883 3.5352 l4.248 6.3574 l-3.4668 0 z M224.882853125 8.32 l0 3.3691 l1.7285 0 c1.5625 0 2.1973 -0.66406 2.1973 -1.6797 c0 -1.0059 -0.63477 -1.6895 -2.1973 -1.6895 l-1.7285 0 z M245.60814453125 8.467 l-5.2344 0 l0 3.2031 l4.6387 0 l0 2.5488 l-4.6387 0 l0 3.1934 l5.2344 0 l0 2.5879 l-8.1836 0 l0 -14.111 l8.1836 0 l0 2.5781 z M251.0303015625 20 l0 -14.111 l5.1074 0 c4.502 0 6.7285 2.832 6.7285 7.0508 c0 4.2285 -2.2266 7.0605 -6.7285 7.0605 l-5.1074 0 z M253.9600015625 17.4121 l2.0313 0 c2.5977 0 3.7891 -1.6211 3.7891 -4.4727 s-1.1914 -4.4727 -3.7891 -4.4727 l-2.0313 0 l0 8.9453 z M276.19896484375 8.467 l-5.2344 0 l0 3.2031 l4.6387 0 l0 2.5488 l-4.6387 0 l0 3.1934 l5.2344 0 l0 2.5879 l-8.1836 0 l0 -14.111 l8.1836 0 l0 2.5781 z M289.940921875 8.467 l-5.3711 0 l0 3.2031 l4.6387 0 l0 2.5488 l-4.6387 0 l0 5.7813 l-2.9492 0 l0 -14.111 l8.3203 0 l0 2.5781 z M294.84621953125 20 l0 -14.111 l2.9297 0 l0 14.111 l-2.9297 0 z M313.4620703125 5.888999999999999 l2.9199 0 l0 14.111 l-3.3887 0 l-6.25 -10.088 l0 10.088 l-2.9199 0 l0 -14.111 l3.3496 0 l6.2891 10.029 l0 -10.029 z M330.62279296875 8.467 l-5.2344 0 l0 3.2031 l4.6387 0 l0 2.5488 l-4.6387 0 l0 3.1934 l5.2344 0 l0 2.5879 l-8.1836 0 l0 -14.111 l8.1836 0 l0 2.5781 z M336.04495 20 l0 -14.111 l5.1074 0 c4.502 0 6.7285 2.832 6.7285 7.0508 c0 4.2285 -2.2266 7.0605 -6.7285 7.0605 l-5.1074 0 z M338.97465 17.4121 l2.0313 0 c2.5977 0 3.7891 -1.6211 3.7891 -4.4727 s-1.1914 -4.4727 -3.7891 -4.4727 l-2.0313 0 l0 8.9453 z"/></g>
			</g>
		</svg>
	