<svg width="42" height="162" viewBox="0 0 42 162" fill="none" xmlns="http://www.w3.org/2000/svg">
<g clip-path="url(#clip0_76_303)">
<rect x="20" y="42" width="1" height="120" rx="0.5" fill="url(#paint0_linear_76_303)"/>
</g>
<rect width="42" height="42" fill="#0D0D0D"/>
<path d="M24.5 21V26.95C24.5 27.9302 24.5 28.4198 24.6908 28.7942C24.8586 29.1235 25.126 29.3916 25.4553 29.5594C25.8293 29.75 26.3191 29.75 27.2974 29.75H30.4526C31.4309 29.75 31.92 29.75 32.294 29.5594C32.6233 29.3916 32.8916 29.1233 33.0594 28.794C33.25 28.42 33.25 27.9309 33.25 26.9526V23.7974C33.25 22.8191 33.25 22.3293 33.0594 21.9553C32.8916 21.626 32.6235 21.3586 32.2942 21.1908C31.9198 21 31.4302 21 30.45 21H24.5ZM24.5 21V17.5C24.5 14.6005 26.8504 12.25 29.75 12.25M8.75 21V26.95C8.75 27.9302 8.75 28.4198 8.94073 28.7942C9.10852 29.1235 9.37604 29.3916 9.70532 29.5594C10.0793 29.75 10.5691 29.75 11.5473 29.75H14.7027C15.6809 29.75 16.17 29.75 16.544 29.5594C16.8733 29.3916 17.1417 29.1233 17.3094 28.794C17.5 28.42 17.5 27.9309 17.5 26.9526V23.7974C17.5 22.8191 17.5 22.3293 17.3094 21.9553C17.1417 21.626 16.8734 21.3586 16.5441 21.1908C16.1698 21 15.6801 21 14.7 21H8.75ZM8.75 21V17.5C8.75 14.6005 11.1005 12.25 14 12.25" stroke="#57D365" stroke-width="2" stroke-linecap="round" stroke-linejoin="round"/>
<defs>
<linearGradient id="paint0_linear_76_303" x1="20.5" y1="42" x2="20.5" y2="162" gradientUnits="userSpaceOnUse">
<stop stop-color="#56D364"/>
<stop offset="0.5" stop-color="#2EA043"/>
<stop offset="1" stop-color="#0D1117"/>
</linearGradient>
<clipPath id="clip0_76_303">
<rect x="20" y="42" width="1" height="120" rx="0.5" fill="white"/>
</clipPath>
</defs>
</svg>
