<svg width="38" height="36" viewBox="0 0 38 36" fill="none" xmlns="http://www.w3.org/2000/svg">
<path d="M2.08569 15.0894C1.5375 14.5824 1.83528 13.6659 2.57676 13.578L13.083 12.3319C13.3852 12.296 13.6477 12.1063 13.7751 11.8299L18.2066 2.2228C18.5193 1.5448 19.4832 1.54466 19.7959 2.22268L24.2273 11.8297C24.3547 12.1061 24.6156 12.2963 24.9177 12.3322L35.4245 13.578C36.166 13.6659 36.4629 14.5826 35.9148 15.0896L28.1482 22.2733C27.9247 22.48 27.8253 22.7875 27.8844 23.086L29.9458 33.4628C30.0914 34.1952 29.3119 34.7627 28.6604 34.398L19.4284 29.229C19.163 29.0805 18.8404 29.0812 18.5748 29.2297L9.34203 34.3966C8.69049 34.7613 7.90966 34.1952 8.05517 33.4628L10.1168 23.0865C10.1761 22.7882 10.0769 22.4798 9.85343 22.2733L2.08569 15.0894Z" fill="#0D0D0D" stroke="#57D365" stroke-width="2" stroke-linecap="round" stroke-linejoin="round"/>
</svg>
