<svg width="17" height="15" viewBox="0 0 17 15" fill="none" xmlns="http://www.w3.org/2000/svg">
<path fill-rule="evenodd" clip-rule="evenodd" d="M16.3133 2.43762C15.7254 2.71873 15.0924 2.90884 14.4284 2.99378C15.1065 2.55694 15.6268 1.86427 15.8719 1.03914C15.237 1.44362 14.5355 1.73787 13.7861 1.89562C13.1888 1.20902 12.3351 0.780273 11.3903 0.780273C9.57876 0.780273 8.10896 2.36279 8.10896 4.3144C8.10896 4.59146 8.13716 4.86045 8.19346 5.11931C5.46531 4.97168 3.04705 3.56611 1.42704 1.42541C1.14437 1.94921 0.982832 2.55694 0.982832 3.20411C0.982832 4.42968 1.56228 5.51166 2.44319 6.14567C1.906 6.12847 1.39887 5.96767 0.955602 5.70479V5.74827C0.955602 7.46127 2.08725 8.89007 3.58987 9.21367C3.3147 9.29657 3.02451 9.33797 2.72493 9.33797C2.51362 9.33797 2.30701 9.31677 2.10698 9.27537C2.52489 10.6789 3.73637 11.7012 5.17324 11.7285C4.05004 12.677 2.63383 13.2423 1.09647 13.2423C0.831632 13.2423 0.569622 13.2261 0.313232 13.1937C1.76607 14.1948 3.4922 14.7803 5.3451 14.7803C11.3838 14.7803 14.6848 9.39567 14.6848 4.72494C14.6848 4.57124 14.682 4.41754 14.6764 4.26687C15.3178 3.76835 15.8747 3.14647 16.3133 2.43762Z" fill="#383E47"/>
</svg>
